<svg xmlns="http://www.w3.org/2000/svg" viewBox="0 0 427 119.963">
                        <defs>
                            <clipPath id="homepage-eat-a">
                                <path d="M54.005.682H369.56V45.389H54.005z" class="homepage-eat-a" transform="rotate(-.989 211.73 23.032)"/>
                            </clipPath>
                            <style>
                                .homepage-eat-a {
                                    fill: none
                                }

                                .homepage-eat-b {
                                    fill: #177
                                }

                                .homepage-eat-c {
                                    fill: #7bd5d5
                                }
                            </style>
                        </defs>
                        <path d="M1.516,79.243a3.548,3.548,0,0,0,.8-.06.4.4,0,0,0,.3-.21,1.869,1.869,0,0,0,.06-.57V71.068a1.461,1.461,0,0,0-.075-.555.386.386,0,0,0-.3-.225,3.858,3.858,0,0,0-.78-.075v-.435h3.69v.435a2.959,2.959,0,0,0-.8.075.424.424,0,0,0-.3.225,1.8,1.8,0,0,0-.06.555v3.165h4.83V71.068a1.461,1.461,0,0,0-.075-.555.386.386,0,0,0-.3-.225,2.783,2.783,0,0,0-.78-.075v-.435h3.69v.435a4.135,4.135,0,0,0-.795.075.424.424,0,0,0-.3.225,1.8,1.8,0,0,0-.06.555V78.4a1.8,1.8,0,0,0,.06.555.424.424,0,0,0,.3.225,3.672,3.672,0,0,0,.8.06v.435H7.726v-.435a3.548,3.548,0,0,0,.8-.06.4.4,0,0,0,.3-.21,1.869,1.869,0,0,0,.06-.57V74.8H4.051v3.6a1.8,1.8,0,0,0,.06.555.424.424,0,0,0,.3.225,3.672,3.672,0,0,0,.8.06v.435H1.516Zm16.931-3.015h-4.77a4.641,4.641,0,0,0,.5,2.205,1.79,1.79,0,0,0,1.68.81,2.011,2.011,0,0,0,1.38-.45,2.64,2.64,0,0,0,.75-1.155l.42.18a3.256,3.256,0,0,1-.975,1.47,2.991,2.991,0,0,1-1.965.555,2.984,2.984,0,0,1-2.4-.93,4.049,4.049,0,0,1-.78-2.67,4.205,4.205,0,0,1,.81-2.76,2.9,2.9,0,0,1,2.385-.99q2.97,0,2.97,3.6Zm-1.395-.48a4.835,4.835,0,0,0-.345-2.1,1.242,1.242,0,0,0-1.215-.69,1.446,1.446,0,0,0-1.32.7,4.335,4.335,0,0,0-.5,2.085Zm2.533,3.495a2.877,2.877,0,0,0,.7-.06.376.376,0,0,0,.27-.21,1.732,1.732,0,0,0,.06-.54v-7.74a.951.951,0,0,0-.09-.51.4.4,0,0,0-.36-.135h-.51V69.6l1.815-.3h.42v9.135a1.732,1.732,0,0,0,.06.54.376.376,0,0,0,.27.21,2.791,2.791,0,0,0,.69.06v.435h-3.33Zm8.763-6.75a2.431,2.431,0,0,1,2.041.885A4.224,4.224,0,0,1,31.079,76a4.32,4.32,0,0,1-.84,2.91,2.954,2.954,0,0,1-2.326.945,2.5,2.5,0,0,1-.989-.18,3.051,3.051,0,0,1-.8-.465v2.22a1.61,1.61,0,0,0,.06.525.426.426,0,0,0,.3.225,3.262,3.262,0,0,0,.75.06v.435H23.833v-.435a2.757,2.757,0,0,0,.705-.06.3.3,0,0,0,.256-.21,1.676,1.676,0,0,0,.06-.54V73.9a.769.769,0,0,0-.105-.48q-.091-.12-.4-.12h-.451v-.435l1.785-.3h.4V73.3a3.7,3.7,0,0,1,.961-.57A3.332,3.332,0,0,1,28.348,72.493Zm-.6,6.885q1.934,0,1.935-3.18a4.682,4.682,0,0,0-.451-2.28,1.476,1.476,0,0,0-1.379-.81,2.625,2.625,0,0,0-1.726.75v4.755A2.151,2.151,0,0,0,27.749,79.378Zm6.2-8.13a.843.843,0,0,1-.6-.225.824.824,0,0,1-.225-.585.843.843,0,0,1,.225-.6.814.814,0,0,1,.6-.24.783.783,0,0,1,.6.24.843.843,0,0,1,.225.6.795.795,0,0,1-.825.81Zm-1.62,7.995a2.877,2.877,0,0,0,.7-.06.332.332,0,0,0,.255-.21,1.647,1.647,0,0,0,.06-.54v-4.47a.951.951,0,0,0-.09-.51q-.075-.135-.345-.135h-.51v-.45l1.815-.3h.42v5.865a1.8,1.8,0,0,0,.06.555.369.369,0,0,0,.255.21,3.808,3.808,0,0,0,.7.045v.435h-3.33Zm11.188-.81a1.732,1.732,0,0,0,.06.54.376.376,0,0,0,.27.21,2.877,2.877,0,0,0,.705.06v.435H41.269v-.435a3.437,3.437,0,0,0,.675-.045.369.369,0,0,0,.255-.21,1.582,1.582,0,0,0,.06-.525V74.818a1.806,1.806,0,0,0-.345-1.155,1.215,1.215,0,0,0-1.05-.45,1.677,1.677,0,0,0-.99.285,3.2,3.2,0,0,0-.78.78v4.185a1.732,1.732,0,0,0,.06.54.331.331,0,0,0,.255.195,3.327,3.327,0,0,0,.66.045v.435H36.784v-.435a2.877,2.877,0,0,0,.7-.06.332.332,0,0,0,.255-.21,1.647,1.647,0,0,0,.06-.54v-4.47a.951.951,0,0,0-.09-.51.386.386,0,0,0-.345-.135h-.51v-.45l1.77-.3h.42v1.11h.015a3.421,3.421,0,0,1,1.095-.885,2.884,2.884,0,0,1,1.335-.3q2.025,0,2.025,2.16Zm8.155-5.94a1.122,1.122,0,0,1,.78.27.868.868,0,0,1,.315.69.763.763,0,0,1-.165.51.558.558,0,0,1-.45.2.622.622,0,0,1-.435-.15.47.47,0,0,1-.165-.36.761.761,0,0,1,.03-.21.644.644,0,0,0,.03-.165.215.215,0,0,0-.09-.165.34.34,0,0,0-.225-.075q-.27,0-.615.465a2.228,2.228,0,0,1,.405,1.35,2,2,0,0,1-.825,1.77,3.474,3.474,0,0,1-2.01.555,4.559,4.559,0,0,1-1-.105q-.72.39-.72.84a.523.523,0,0,0,.3.45,2.244,2.244,0,0,0,1.05.18h1.08a3.477,3.477,0,0,1,2.055.48,1.649,1.649,0,0,1,.66,1.425,1.989,1.989,0,0,1-.975,1.815,4.716,4.716,0,0,1-2.5.6,4.631,4.631,0,0,1-2.22-.465A1.5,1.5,0,0,1,45.134,81a1.314,1.314,0,0,1,.3-.87,2.515,2.515,0,0,1,.99-.615,1.537,1.537,0,0,1-.7-.45,1.073,1.073,0,0,1-.255-.69,1.172,1.172,0,0,1,.33-.78,3.127,3.127,0,0,1,.96-.69,2.264,2.264,0,0,1-.495-3.825,3.5,3.5,0,0,1,2.025-.585,3.818,3.818,0,0,1,1.185.18,2.463,2.463,0,0,1,.945.51A1.546,1.546,0,0,1,51.674,72.493Zm-3.45,4.2a1.361,1.361,0,0,0,1.185-.48,2.387,2.387,0,0,0,.36-1.44,2.183,2.183,0,0,0-.345-1.32,1.284,1.284,0,0,0-1.125-.465,1.308,1.308,0,0,0-1.155.5,2.374,2.374,0,0,0-.345,1.395,2.418,2.418,0,0,0,.315,1.335A1.25,1.25,0,0,0,48.224,76.693Zm-1,2.94a1.413,1.413,0,0,0-.7.525,1.443,1.443,0,0,0-.2.72,1.286,1.286,0,0,0,.555,1.095,2.469,2.469,0,0,0,1.5.42,2.623,2.623,0,0,0,1.575-.435,1.377,1.377,0,0,0,.6-1.2.932.932,0,0,0-.435-.855,2.979,2.979,0,0,0-1.485-.27Zm11.728-.606H60.1a1.408,1.408,0,0,0,.882-.189,1.065,1.065,0,0,0,.231-.8V67.5q-1.344.693-3,1.386v-.819a13.93,13.93,0,0,0,1.89-1.092,11.5,11.5,0,0,0,1.533-1.155h1.428V78.04a1.065,1.065,0,0,0,.231.8,1.465,1.465,0,0,0,.882.189h1.155v.651H58.947Zm12.3.882a4.956,4.956,0,0,1-2.625-.609,1.926,1.926,0,0,1-.966-1.722,1.338,1.338,0,0,1,.336-.987,1.224,1.224,0,0,1,.9-.357,1.124,1.124,0,0,1,.8.294,1.065,1.065,0,0,1,.315.819.968.968,0,0,1-.063.378,3.738,3.738,0,0,1-.168.336.819.819,0,0,0-.084.147.6.6,0,0,0-.063.273.626.626,0,0,0,.462.588,3.528,3.528,0,0,0,1.155.168,2.862,2.862,0,0,0,2.268-.882,3.9,3.9,0,0,0,.777-2.646,4.058,4.058,0,0,0-.735-2.646,2.54,2.54,0,0,0-2.121-.9,3.015,3.015,0,0,0-1.365.294,4.607,4.607,0,0,0-1.176.882h-.5L69,65.818h5.313a1.575,1.575,0,0,0,.693-.105.788.788,0,0,0,.315-.4h.567L75.3,67.477H69.546L69.084,72.2l.042.021A5.247,5.247,0,0,1,72.4,71.131a3.633,3.633,0,0,1,2.919,1.176,4.389,4.389,0,0,1,1.008,2.961,4.8,4.8,0,0,1-.609,2.415,4.035,4.035,0,0,1-1.743,1.638A5.866,5.866,0,0,1,71.247,79.909Zm12.234-.84h.609q.63,0,.8-.21a1.513,1.513,0,0,0,.189-.9V67.624a2.046,2.046,0,0,0-.105-.777.593.593,0,0,0-.42-.315,5.27,5.27,0,0,0-1.071-.1v-.609h3.7l4.242,10.311h.021l4.242-10.311H99.21v.609a5.27,5.27,0,0,0-1.071.1.593.593,0,0,0-.42.315,2.046,2.046,0,0,0-.1.777V77.893a2.146,2.146,0,0,0,.1.777.593.593,0,0,0,.42.315,4.869,4.869,0,0,0,1.071.084v.609H94.086v-.609a5.141,5.141,0,0,0,1.113-.084.591.591,0,0,0,.42-.336,1.97,1.97,0,0,0,.105-.756V67.708h-.042L91.02,79.132h-.378L85.917,67.708h-.042V77.956a4.329,4.329,0,0,0,.042.735.44.44,0,0,0,.273.294,2.331,2.331,0,0,0,.735.084H87.7v.609H83.481Zm19.8-11.193a1.181,1.181,0,0,1-.84-.315,1.153,1.153,0,0,1-.315-.819,1.181,1.181,0,0,1,.315-.84,1.14,1.14,0,0,1,.84-.336,1.1,1.1,0,0,1,.84.336,1.181,1.181,0,0,1,.315.84,1.113,1.113,0,0,1-1.155,1.134Zm-2.268,11.193a4.028,4.028,0,0,0,.987-.084.464.464,0,0,0,.357-.294,2.306,2.306,0,0,0,.084-.756V71.677a1.331,1.331,0,0,0-.126-.714q-.1-.189-.483-.189h-.714v-.63l2.541-.42h.588v8.211a2.519,2.519,0,0,0,.084.777.517.517,0,0,0,.357.294,5.331,5.331,0,0,0,.987.063v.609h-4.662Zm6.109,0a4.028,4.028,0,0,0,.987-.084.527.527,0,0,0,.378-.294,2.424,2.424,0,0,0,.084-.756V67.1a1.331,1.331,0,0,0-.126-.714.567.567,0,0,0-.5-.189h-.714v-.63l2.541-.42h.588V77.935a2.424,2.424,0,0,0,.084.756.527.527,0,0,0,.378.294,3.907,3.907,0,0,0,.966.084v.609h-4.662Zm5.906,0a4.028,4.028,0,0,0,.987-.084.527.527,0,0,0,.378-.294,2.424,2.424,0,0,0,.084-.756V67.1a1.331,1.331,0,0,0-.126-.714.567.567,0,0,0-.5-.189h-.714v-.63l2.541-.42h.588V77.935a2.424,2.424,0,0,0,.084.756.527.527,0,0,0,.378.294,3.907,3.907,0,0,0,.966.084v.609h-4.662Zm8.28-11.193a1.181,1.181,0,0,1-.84-.315,1.153,1.153,0,0,1-.315-.819,1.181,1.181,0,0,1,.315-.84,1.14,1.14,0,0,1,.84-.336,1.1,1.1,0,0,1,.84.336,1.181,1.181,0,0,1,.315.84,1.113,1.113,0,0,1-1.155,1.134ZM119.04,79.069a4.028,4.028,0,0,0,.987-.084.464.464,0,0,0,.357-.294,2.306,2.306,0,0,0,.084-.756V71.677a1.331,1.331,0,0,0-.126-.714q-.1-.189-.483-.189h-.714v-.63l2.541-.42h.588v8.211a2.519,2.519,0,0,0,.084.777.517.517,0,0,0,.357.294,5.331,5.331,0,0,0,.987.063v.609H119.04Zm11.044.84q-4.557,0-4.557-5.145a5.7,5.7,0,0,1,1.134-3.843A4.289,4.289,0,0,1,130.1,69.6q4.557,0,4.557,5.145Q134.662,79.909,130.084,79.909Zm.021-.672q2.6,0,2.6-4.389,0-4.578-2.625-4.578a2.108,2.108,0,0,0-1.953,1.155,6.839,6.839,0,0,0-.651,3.339Q127.48,79.237,130.1,79.237Zm15.755-1.3a2.424,2.424,0,0,0,.084.756.527.527,0,0,0,.378.294,4.028,4.028,0,0,0,.987.084v.609h-4.6v-.609a4.812,4.812,0,0,0,.945-.063.517.517,0,0,0,.357-.294,2.215,2.215,0,0,0,.084-.735v-5.1a2.528,2.528,0,0,0-.483-1.617,1.7,1.7,0,0,0-1.47-.63,2.347,2.347,0,0,0-1.386.4,4.475,4.475,0,0,0-1.092,1.092v5.859a2.424,2.424,0,0,0,.084.756.463.463,0,0,0,.357.273,4.658,4.658,0,0,0,.924.063v.609h-4.6v-.609a4.028,4.028,0,0,0,.987-.084.464.464,0,0,0,.357-.294,2.306,2.306,0,0,0,.084-.756V71.677a1.331,1.331,0,0,0-.126-.714.54.54,0,0,0-.483-.189h-.714v-.63l2.478-.42h.588v1.554h.021a4.79,4.79,0,0,1,1.533-1.239,4.038,4.038,0,0,1,1.869-.42q2.835,0,2.835,3.024Zm-124.9,18.5a1.732,1.732,0,0,0,.06.54.376.376,0,0,0,.27.21,2.877,2.877,0,0,0,.7.06v.435H18.711v-.435a2.516,2.516,0,0,0,.66-.06.376.376,0,0,0,.27-.21,1.518,1.518,0,0,0,.06-.51V92.818a1.806,1.806,0,0,0-.345-1.155,1.232,1.232,0,0,0-1.065-.45,1.766,1.766,0,0,0-.99.285,2.962,2.962,0,0,0-.78.825v4.14a1.518,1.518,0,0,0,.06.51.369.369,0,0,0,.255.21,2.706,2.706,0,0,0,.675.06v.435H14.226v-.435a2.877,2.877,0,0,0,.7-.06.332.332,0,0,0,.255-.21,1.647,1.647,0,0,0,.06-.54v-7.74a.951.951,0,0,0-.09-.51.386.386,0,0,0-.345-.135H14.3V87.6l1.8-.3h.42v4.32h.045a3.143,3.143,0,0,1,1.05-.84,2.915,2.915,0,0,1,1.32-.285q2.025,0,2.025,2.16Zm5.184,1.41q-3.255,0-3.255-3.675a4.071,4.071,0,0,1,.81-2.745,3.063,3.063,0,0,1,2.46-.945q3.255,0,3.255,3.675T26.145,97.843Zm.015-.48q1.86,0,1.86-3.135,0-3.27-1.875-3.27a1.505,1.505,0,0,0-1.395.825,4.885,4.885,0,0,0-.465,2.385Q24.285,97.363,26.16,97.363Zm15.289-.93a1.732,1.732,0,0,0,.06.54.37.37,0,0,0,.27.225,3.808,3.808,0,0,0,.7.045v.435H39.2v-.435a3.437,3.437,0,0,0,.675-.045.369.369,0,0,0,.255-.21,1.582,1.582,0,0,0,.06-.525V92.818a2.028,2.028,0,0,0-.3-1.17,1.1,1.1,0,0,0-.975-.435,1.521,1.521,0,0,0-.93.3,3.242,3.242,0,0,0-.765.8v4.125a1.732,1.732,0,0,0,.06.54.369.369,0,0,0,.255.21,2.706,2.706,0,0,0,.675.06v.435h-3.24v-.435a3.437,3.437,0,0,0,.675-.045.369.369,0,0,0,.255-.21,1.582,1.582,0,0,0,.06-.525V92.818a2.028,2.028,0,0,0-.3-1.17,1.1,1.1,0,0,0-.975-.435,2.1,2.1,0,0,0-1.7,1.05v4.2a1.732,1.732,0,0,0,.06.54.331.331,0,0,0,.255.195,3.327,3.327,0,0,0,.66.045v.435H30.679v-.435a2.877,2.877,0,0,0,.705-.06.332.332,0,0,0,.255-.21,1.647,1.647,0,0,0,.06-.54v-4.47a.951.951,0,0,0-.09-.51.386.386,0,0,0-.345-.135h-.51v-.45l1.77-.3h.42v1.08h.015a3.023,3.023,0,0,1,2.37-1.155,2.054,2.054,0,0,1,1.215.33,1.549,1.549,0,0,1,.615.885,2.89,2.89,0,0,1,2.4-1.215,1.779,1.779,0,0,1,1.425.54,2.392,2.392,0,0,1,.465,1.62Zm8.114-2.205h-4.77a4.641,4.641,0,0,0,.495,2.205,1.79,1.79,0,0,0,1.68.81,2.011,2.011,0,0,0,1.38-.45,2.64,2.64,0,0,0,.75-1.155l.42.18a3.256,3.256,0,0,1-.975,1.47,3.644,3.644,0,0,1-4.365-.375,4.049,4.049,0,0,1-.78-2.67,4.205,4.205,0,0,1,.81-2.76,2.9,2.9,0,0,1,2.385-.99q2.97,0,2.97,3.6Zm-1.4-.48a4.835,4.835,0,0,0-.345-2.1,1.242,1.242,0,0,0-1.215-.69,1.446,1.446,0,0,0-1.32.7,4.335,4.335,0,0,0-.495,2.085Zm9.662,4.095a3.037,3.037,0,0,1-2.415-.96,3.932,3.932,0,0,1-.84-2.655,4.113,4.113,0,0,1,.84-2.7,3.1,3.1,0,0,1,2.535-1.035,3.379,3.379,0,0,1,1.8.435,1.346,1.346,0,0,1,.7,1.2.907.907,0,0,1-.2.615.713.713,0,0,1-.57.225.772.772,0,0,1-.57-.2.762.762,0,0,1-.2-.54.862.862,0,0,1,.045-.3,1.555,1.555,0,0,1,.165-.255.476.476,0,0,0,.105-.255q0-.195-.315-.33a2.195,2.195,0,0,0-2.37.57,3.877,3.877,0,0,0-.57,2.4q0,3.18,2.16,3.18a2.082,2.082,0,0,0,2.04-1.335l.36.21a2.663,2.663,0,0,1-.825,1.17A2.788,2.788,0,0,1,57.83,97.843Zm7.236,0q-3.255,0-3.255-3.675a4.071,4.071,0,0,1,.81-2.745,3.063,3.063,0,0,1,2.46-.945q3.255,0,3.255,3.675T65.066,97.843Zm.015-.48q1.86,0,1.86-3.135,0-3.27-1.875-3.27a1.505,1.505,0,0,0-1.4.825,4.885,4.885,0,0,0-.465,2.385Q63.206,97.363,65.081,97.363Zm7.954.48q-3.255,0-3.255-3.675a4.071,4.071,0,0,1,.81-2.745,3.063,3.063,0,0,1,2.46-.945q3.255,0,3.255,3.675T73.035,97.843Zm.015-.48q1.86,0,1.86-3.135,0-3.27-1.875-3.27a1.505,1.505,0,0,0-1.395.825,4.885,4.885,0,0,0-.465,2.385Q71.175,97.363,73.05,97.363Zm11.4-.12v.435h-2.91v-.435h.225q.36,0,.36-.165a1.656,1.656,0,0,0-.3-.54L80.1,94.213l-.57.615v1.605a1.732,1.732,0,0,0,.06.54.376.376,0,0,0,.27.21,2.791,2.791,0,0,0,.69.06v.435h-3.33v-.435a2.877,2.877,0,0,0,.705-.06.376.376,0,0,0,.27-.21,1.732,1.732,0,0,0,.06-.54v-7.74a.951.951,0,0,0-.09-.51.4.4,0,0,0-.36-.135h-.51V87.6l1.815-.3h.42v6.915l2.085-2.295a1.154,1.154,0,0,0,.36-.615q0-.21-.285-.21H81.4v-.435h2.73v.435h-.21a1.893,1.893,0,0,0-1.035.285,5.136,5.136,0,0,0-1,.9l-.975,1.065,2.01,2.685a7.058,7.058,0,0,0,.81.975.888.888,0,0,0,.57.24Zm3.429.6a3,3,0,0,1-.72-.075,5.012,5.012,0,0,1-.585-.2,1.6,1.6,0,0,0-.525-.135.363.363,0,0,0-.24.075.631.631,0,0,0-.15.21H85.37l-.15-2.475h.3a3.275,3.275,0,0,0,.87,1.59,2.018,2.018,0,0,0,1.395.525,1.623,1.623,0,0,0,1.05-.315,1.115,1.115,0,0,0,.405-.915,1.041,1.041,0,0,0-.225-.69,1.668,1.668,0,0,0-.54-.45,9.863,9.863,0,0,0-.93-.405l-.375-.135a4.526,4.526,0,0,1-1.35-.78,1.54,1.54,0,0,1-.42-1.14,1.815,1.815,0,0,1,.66-1.485,2.7,2.7,0,0,1,1.77-.555,3.085,3.085,0,0,1,.585.045,4.926,4.926,0,0,1,.51.135,1.829,1.829,0,0,0,.39.09.293.293,0,0,0,.21-.06.371.371,0,0,0,.075-.135.263.263,0,0,0,.03-.075h.27l.1,2.2h-.3q-.4-1.74-1.8-1.74a1.667,1.667,0,0,0-1.02.3.939.939,0,0,0-.39.78,1.038,1.038,0,0,0,.375.81,3.19,3.19,0,0,0,.93.51l.405.135a4.8,4.8,0,0,1,1.65.87,1.657,1.657,0,0,1,.54,1.305,1.968,1.968,0,0,1-.7,1.575A2.7,2.7,0,0,1,87.875,97.843Zm13.99-.405a2.87,2.87,0,0,1-.585.285,2.408,2.408,0,0,1-.78.105,1.135,1.135,0,0,1-.69-.18,1.1,1.1,0,0,1-.27-.78,5.05,5.05,0,0,1-1.08.735,2.782,2.782,0,0,1-1.17.24,2.268,2.268,0,0,1-1.35-.375,1.331,1.331,0,0,1-.51-1.125,2.245,2.245,0,0,1,1.065-1.83,7.02,7.02,0,0,1,3.045-1.095v-.87a1.743,1.743,0,0,0-.315-1.14,1.275,1.275,0,0,0-1.05-.375,2.218,2.218,0,0,0-.945.195q-.42.2-.42.39a.325.325,0,0,0,.135.225.8.8,0,0,1,.225.225.5.5,0,0,1,.09.33.722.722,0,0,1-.18.51.69.69,0,0,1-.51.18.75.75,0,0,1-.555-.21.827.827,0,0,1-.2-.585,1.434,1.434,0,0,1,.3-.87,2.224,2.224,0,0,1,.93-.66,4.081,4.081,0,0,1,1.53-.255,2.534,2.534,0,0,1,1.68.465,2.051,2.051,0,0,1,.54,1.62v3.555a1.9,1.9,0,0,0,.12.81.464.464,0,0,0,.42.21,1.074,1.074,0,0,0,.42-.105ZM96.78,95.983a1.015,1.015,0,0,0,.3.8,1.309,1.309,0,0,0,.87.255,1.814,1.814,0,0,0,.8-.18,4.545,4.545,0,0,0,.8-.48V93.9a5.511,5.511,0,0,0-2.085.81A1.516,1.516,0,0,0,96.78,95.983Zm20.152.45a1.732,1.732,0,0,0,.06.54.37.37,0,0,0,.27.225,3.808,3.808,0,0,0,.7.045v.435h-3.285v-.435a3.437,3.437,0,0,0,.675-.045.369.369,0,0,0,.255-.21,1.582,1.582,0,0,0,.06-.525V92.818a2.028,2.028,0,0,0-.3-1.17,1.1,1.1,0,0,0-.975-.435,1.521,1.521,0,0,0-.93.3,3.242,3.242,0,0,0-.765.8v4.125a1.732,1.732,0,0,0,.06.54.369.369,0,0,0,.255.21,2.706,2.706,0,0,0,.675.06v.435h-3.24v-.435a3.437,3.437,0,0,0,.675-.045.369.369,0,0,0,.255-.21,1.582,1.582,0,0,0,.06-.525V92.818a2.028,2.028,0,0,0-.3-1.17,1.1,1.1,0,0,0-.975-.435,2.1,2.1,0,0,0-1.7,1.05v4.2a1.732,1.732,0,0,0,.06.54.331.331,0,0,0,.255.195,3.327,3.327,0,0,0,.66.045v.435h-3.285v-.435a2.877,2.877,0,0,0,.7-.06.332.332,0,0,0,.255-.21,1.647,1.647,0,0,0,.06-.54v-4.47a.951.951,0,0,0-.09-.51.386.386,0,0,0-.345-.135h-.51v-.45l1.77-.3h.42v1.08h.015a3.023,3.023,0,0,1,2.37-1.155,2.054,2.054,0,0,1,1.215.33,1.549,1.549,0,0,1,.615.885,2.89,2.89,0,0,1,2.4-1.215,1.779,1.779,0,0,1,1.425.54,2.392,2.392,0,0,1,.465,1.62Zm5.189,1.41q-3.255,0-3.255-3.675a4.071,4.071,0,0,1,.81-2.745,3.063,3.063,0,0,1,2.46-.945q3.255,0,3.255,3.675T122.121,97.843Zm.015-.48q1.86,0,1.86-3.135,0-3.27-1.875-3.27a1.505,1.505,0,0,0-1.395.825,4.885,4.885,0,0,0-.465,2.385Q120.261,97.363,122.136,97.363Zm11.254-.93a1.732,1.732,0,0,0,.06.54.376.376,0,0,0,.27.21,2.877,2.877,0,0,0,.705.06v.435H131.14v-.435a3.437,3.437,0,0,0,.675-.045.369.369,0,0,0,.255-.21,1.582,1.582,0,0,0,.06-.525V92.818a1.806,1.806,0,0,0-.345-1.155,1.215,1.215,0,0,0-1.05-.45,1.677,1.677,0,0,0-.99.285,3.2,3.2,0,0,0-.78.78v4.185a1.732,1.732,0,0,0,.06.54.331.331,0,0,0,.255.195,3.327,3.327,0,0,0,.66.045v.435h-3.285v-.435a2.877,2.877,0,0,0,.7-.06.332.332,0,0,0,.255-.21,1.647,1.647,0,0,0,.06-.54v-4.47a.951.951,0,0,0-.09-.51.386.386,0,0,0-.345-.135h-.51v-.45l1.77-.3h.42v1.11h.015a3.421,3.421,0,0,1,1.095-.885,2.884,2.884,0,0,1,1.335-.3q2.025,0,2.025,2.16Zm4.112,1.41a1.593,1.593,0,0,1-1.05-.36,1.527,1.527,0,0,1-.42-1.215v-5.13h-1.095v-.45q1.56-.165,1.935-2.31h.435v2.28h1.665v.48h-1.665v4.905a1.649,1.649,0,0,0,.18.885.674.674,0,0,0,.57.255,1.3,1.3,0,0,0,.5-.105,2.5,2.5,0,0,0,.435-.255l.165.36a5.15,5.15,0,0,1-.795.495A1.915,1.915,0,0,1,137.5,97.843Zm8.966-1.41a1.732,1.732,0,0,0,.06.54.376.376,0,0,0,.27.21,2.877,2.877,0,0,0,.7.06v.435h-3.285v-.435a2.516,2.516,0,0,0,.66-.06.376.376,0,0,0,.27-.21,1.518,1.518,0,0,0,.06-.51V92.818a1.806,1.806,0,0,0-.345-1.155,1.232,1.232,0,0,0-1.065-.45,1.766,1.766,0,0,0-.99.285,2.962,2.962,0,0,0-.78.825v4.14a1.518,1.518,0,0,0,.06.51.369.369,0,0,0,.255.21,2.706,2.706,0,0,0,.675.06v.435h-3.285v-.435a2.877,2.877,0,0,0,.7-.06.332.332,0,0,0,.255-.21,1.647,1.647,0,0,0,.06-.54v-7.74a.951.951,0,0,0-.09-.51.386.386,0,0,0-.345-.135h-.51V87.6l1.8-.3h.42v4.32h.045a3.143,3.143,0,0,1,1.05-.84,2.915,2.915,0,0,1,1.32-.285q2.025,0,2.025,2.16Z" class="homepage-eat-a"/>
                        <path d="M1.516,79.243a3.548,3.548,0,0,0,.8-.06.4.4,0,0,0,.3-.21,1.869,1.869,0,0,0,.06-.57V71.068a1.461,1.461,0,0,0-.075-.555.386.386,0,0,0-.3-.225,3.858,3.858,0,0,0-.78-.075v-.435h3.69v.435a2.959,2.959,0,0,0-.8.075.424.424,0,0,0-.3.225,1.8,1.8,0,0,0-.06.555v3.165h4.83V71.068a1.461,1.461,0,0,0-.075-.555.386.386,0,0,0-.3-.225,2.783,2.783,0,0,0-.78-.075v-.435h3.69v.435a4.135,4.135,0,0,0-.795.075.424.424,0,0,0-.3.225,1.8,1.8,0,0,0-.06.555V78.4a1.8,1.8,0,0,0,.06.555.424.424,0,0,0,.3.225,3.672,3.672,0,0,0,.8.06v.435H7.726v-.435a3.548,3.548,0,0,0,.8-.06.4.4,0,0,0,.3-.21,1.869,1.869,0,0,0,.06-.57V74.8H4.051v3.6a1.8,1.8,0,0,0,.06.555.424.424,0,0,0,.3.225,3.672,3.672,0,0,0,.8.06v.435H1.516Zm16.931-3.015h-4.77a4.641,4.641,0,0,0,.5,2.205,1.79,1.79,0,0,0,1.68.81,2.011,2.011,0,0,0,1.38-.45,2.64,2.64,0,0,0,.75-1.155l.42.18a3.256,3.256,0,0,1-.975,1.47,2.991,2.991,0,0,1-1.965.555,2.984,2.984,0,0,1-2.4-.93,4.049,4.049,0,0,1-.78-2.67,4.205,4.205,0,0,1,.81-2.76,2.9,2.9,0,0,1,2.385-.99q2.97,0,2.97,3.6Zm-1.395-.48a4.835,4.835,0,0,0-.345-2.1,1.242,1.242,0,0,0-1.215-.69,1.446,1.446,0,0,0-1.32.7,4.335,4.335,0,0,0-.5,2.085Zm2.533,3.495a2.877,2.877,0,0,0,.7-.06.376.376,0,0,0,.27-.21,1.732,1.732,0,0,0,.06-.54v-7.74a.951.951,0,0,0-.09-.51.4.4,0,0,0-.36-.135h-.51V69.6l1.815-.3h.42v9.135a1.732,1.732,0,0,0,.06.54.376.376,0,0,0,.27.21,2.791,2.791,0,0,0,.69.06v.435h-3.33Zm8.763-6.75a2.431,2.431,0,0,1,2.041.885A4.224,4.224,0,0,1,31.079,76a4.32,4.32,0,0,1-.84,2.91,2.954,2.954,0,0,1-2.326.945,2.5,2.5,0,0,1-.989-.18,3.051,3.051,0,0,1-.8-.465v2.22a1.61,1.61,0,0,0,.06.525.426.426,0,0,0,.3.225,3.262,3.262,0,0,0,.75.06v.435H23.833v-.435a2.757,2.757,0,0,0,.705-.06.3.3,0,0,0,.256-.21,1.676,1.676,0,0,0,.06-.54V73.9a.769.769,0,0,0-.105-.48q-.091-.12-.4-.12h-.451v-.435l1.785-.3h.4V73.3a3.7,3.7,0,0,1,.961-.57A3.332,3.332,0,0,1,28.348,72.493Zm-.6,6.885q1.934,0,1.935-3.18a4.682,4.682,0,0,0-.451-2.28,1.476,1.476,0,0,0-1.379-.81,2.625,2.625,0,0,0-1.726.75v4.755A2.151,2.151,0,0,0,27.749,79.378Zm6.2-8.13a.843.843,0,0,1-.6-.225.824.824,0,0,1-.225-.585.843.843,0,0,1,.225-.6.814.814,0,0,1,.6-.24.783.783,0,0,1,.6.24.843.843,0,0,1,.225.6.795.795,0,0,1-.825.81Zm-1.62,7.995a2.877,2.877,0,0,0,.7-.06.332.332,0,0,0,.255-.21,1.647,1.647,0,0,0,.06-.54v-4.47a.951.951,0,0,0-.09-.51q-.075-.135-.345-.135h-.51v-.45l1.815-.3h.42v5.865a1.8,1.8,0,0,0,.06.555.369.369,0,0,0,.255.21,3.808,3.808,0,0,0,.7.045v.435h-3.33Zm11.188-.81a1.732,1.732,0,0,0,.06.54.376.376,0,0,0,.27.21,2.877,2.877,0,0,0,.705.06v.435H41.269v-.435a3.437,3.437,0,0,0,.675-.045.369.369,0,0,0,.255-.21,1.582,1.582,0,0,0,.06-.525V74.818a1.806,1.806,0,0,0-.345-1.155,1.215,1.215,0,0,0-1.05-.45,1.677,1.677,0,0,0-.99.285,3.2,3.2,0,0,0-.78.78v4.185a1.732,1.732,0,0,0,.06.54.331.331,0,0,0,.255.195,3.327,3.327,0,0,0,.66.045v.435H36.784v-.435a2.877,2.877,0,0,0,.7-.06.332.332,0,0,0,.255-.21,1.647,1.647,0,0,0,.06-.54v-4.47a.951.951,0,0,0-.09-.51.386.386,0,0,0-.345-.135h-.51v-.45l1.77-.3h.42v1.11h.015a3.421,3.421,0,0,1,1.095-.885,2.884,2.884,0,0,1,1.335-.3q2.025,0,2.025,2.16Zm8.155-5.94a1.122,1.122,0,0,1,.78.27.868.868,0,0,1,.315.69.763.763,0,0,1-.165.51.558.558,0,0,1-.45.2.622.622,0,0,1-.435-.15.47.47,0,0,1-.165-.36.761.761,0,0,1,.03-.21.644.644,0,0,0,.03-.165.215.215,0,0,0-.09-.165.34.34,0,0,0-.225-.075q-.27,0-.615.465a2.228,2.228,0,0,1,.405,1.35,2,2,0,0,1-.825,1.77,3.474,3.474,0,0,1-2.01.555,4.559,4.559,0,0,1-1-.105q-.72.39-.72.84a.523.523,0,0,0,.3.45,2.244,2.244,0,0,0,1.05.18h1.08a3.477,3.477,0,0,1,2.055.48,1.649,1.649,0,0,1,.66,1.425,1.989,1.989,0,0,1-.975,1.815,4.716,4.716,0,0,1-2.5.6,4.631,4.631,0,0,1-2.22-.465A1.5,1.5,0,0,1,45.134,81a1.314,1.314,0,0,1,.3-.87,2.515,2.515,0,0,1,.99-.615,1.537,1.537,0,0,1-.7-.45,1.073,1.073,0,0,1-.255-.69,1.172,1.172,0,0,1,.33-.78,3.127,3.127,0,0,1,.96-.69,2.264,2.264,0,0,1-.495-3.825,3.5,3.5,0,0,1,2.025-.585,3.818,3.818,0,0,1,1.185.18,2.463,2.463,0,0,1,.945.51A1.546,1.546,0,0,1,51.674,72.493Zm-3.45,4.2a1.361,1.361,0,0,0,1.185-.48,2.387,2.387,0,0,0,.36-1.44,2.183,2.183,0,0,0-.345-1.32,1.284,1.284,0,0,0-1.125-.465,1.308,1.308,0,0,0-1.155.5,2.374,2.374,0,0,0-.345,1.395,2.418,2.418,0,0,0,.315,1.335A1.25,1.25,0,0,0,48.224,76.693Zm-1,2.94a1.413,1.413,0,0,0-.7.525,1.443,1.443,0,0,0-.2.72,1.286,1.286,0,0,0,.555,1.095,2.469,2.469,0,0,0,1.5.42,2.623,2.623,0,0,0,1.575-.435,1.377,1.377,0,0,0,.6-1.2.932.932,0,0,0-.435-.855,2.979,2.979,0,0,0-1.485-.27Zm11.728-.606H60.1a1.408,1.408,0,0,0,.882-.189,1.065,1.065,0,0,0,.231-.8V67.5q-1.344.693-3,1.386v-.819a13.93,13.93,0,0,0,1.89-1.092,11.5,11.5,0,0,0,1.533-1.155h1.428V78.04a1.065,1.065,0,0,0,.231.8,1.465,1.465,0,0,0,.882.189h1.155v.651H58.947Zm12.3.882a4.956,4.956,0,0,1-2.625-.609,1.926,1.926,0,0,1-.966-1.722,1.338,1.338,0,0,1,.336-.987,1.224,1.224,0,0,1,.9-.357,1.124,1.124,0,0,1,.8.294,1.065,1.065,0,0,1,.315.819.968.968,0,0,1-.063.378,3.738,3.738,0,0,1-.168.336.819.819,0,0,0-.084.147.6.6,0,0,0-.063.273.626.626,0,0,0,.462.588,3.528,3.528,0,0,0,1.155.168,2.862,2.862,0,0,0,2.268-.882,3.9,3.9,0,0,0,.777-2.646,4.058,4.058,0,0,0-.735-2.646,2.54,2.54,0,0,0-2.121-.9,3.015,3.015,0,0,0-1.365.294,4.607,4.607,0,0,0-1.176.882h-.5L69,65.818h5.313a1.575,1.575,0,0,0,.693-.105.788.788,0,0,0,.315-.4h.567L75.3,67.477H69.546L69.084,72.2l.042.021A5.247,5.247,0,0,1,72.4,71.131a3.633,3.633,0,0,1,2.919,1.176,4.389,4.389,0,0,1,1.008,2.961,4.8,4.8,0,0,1-.609,2.415,4.035,4.035,0,0,1-1.743,1.638A5.866,5.866,0,0,1,71.247,79.909Zm12.234-.84h.609q.63,0,.8-.21a1.513,1.513,0,0,0,.189-.9V67.624a2.046,2.046,0,0,0-.105-.777.593.593,0,0,0-.42-.315,5.27,5.27,0,0,0-1.071-.1v-.609h3.7l4.242,10.311h.021l4.242-10.311H99.21v.609a5.27,5.27,0,0,0-1.071.1.593.593,0,0,0-.42.315,2.046,2.046,0,0,0-.1.777V77.893a2.146,2.146,0,0,0,.1.777.593.593,0,0,0,.42.315,4.869,4.869,0,0,0,1.071.084v.609H94.086v-.609a5.141,5.141,0,0,0,1.113-.084.591.591,0,0,0,.42-.336,1.97,1.97,0,0,0,.105-.756V67.708h-.042L91.02,79.132h-.378L85.917,67.708h-.042V77.956a4.329,4.329,0,0,0,.042.735.44.44,0,0,0,.273.294,2.331,2.331,0,0,0,.735.084H87.7v.609H83.481Zm19.8-11.193a1.181,1.181,0,0,1-.84-.315,1.153,1.153,0,0,1-.315-.819,1.181,1.181,0,0,1,.315-.84,1.14,1.14,0,0,1,.84-.336,1.1,1.1,0,0,1,.84.336,1.181,1.181,0,0,1,.315.84,1.113,1.113,0,0,1-1.155,1.134Zm-2.268,11.193a4.028,4.028,0,0,0,.987-.084.464.464,0,0,0,.357-.294,2.306,2.306,0,0,0,.084-.756V71.677a1.331,1.331,0,0,0-.126-.714q-.1-.189-.483-.189h-.714v-.63l2.541-.42h.588v8.211a2.519,2.519,0,0,0,.084.777.517.517,0,0,0,.357.294,5.331,5.331,0,0,0,.987.063v.609h-4.662Zm6.109,0a4.028,4.028,0,0,0,.987-.084.527.527,0,0,0,.378-.294,2.424,2.424,0,0,0,.084-.756V67.1a1.331,1.331,0,0,0-.126-.714.567.567,0,0,0-.5-.189h-.714v-.63l2.541-.42h.588V77.935a2.424,2.424,0,0,0,.084.756.527.527,0,0,0,.378.294,3.907,3.907,0,0,0,.966.084v.609h-4.662Zm5.906,0a4.028,4.028,0,0,0,.987-.084.527.527,0,0,0,.378-.294,2.424,2.424,0,0,0,.084-.756V67.1a1.331,1.331,0,0,0-.126-.714.567.567,0,0,0-.5-.189h-.714v-.63l2.541-.42h.588V77.935a2.424,2.424,0,0,0,.084.756.527.527,0,0,0,.378.294,3.907,3.907,0,0,0,.966.084v.609h-4.662Zm8.28-11.193a1.181,1.181,0,0,1-.84-.315,1.153,1.153,0,0,1-.315-.819,1.181,1.181,0,0,1,.315-.84,1.14,1.14,0,0,1,.84-.336,1.1,1.1,0,0,1,.84.336,1.181,1.181,0,0,1,.315.84,1.113,1.113,0,0,1-1.155,1.134ZM119.04,79.069a4.028,4.028,0,0,0,.987-.084.464.464,0,0,0,.357-.294,2.306,2.306,0,0,0,.084-.756V71.677a1.331,1.331,0,0,0-.126-.714q-.1-.189-.483-.189h-.714v-.63l2.541-.42h.588v8.211a2.519,2.519,0,0,0,.084.777.517.517,0,0,0,.357.294,5.331,5.331,0,0,0,.987.063v.609H119.04Zm11.044.84q-4.557,0-4.557-5.145a5.7,5.7,0,0,1,1.134-3.843A4.289,4.289,0,0,1,130.1,69.6q4.557,0,4.557,5.145Q134.662,79.909,130.084,79.909Zm.021-.672q2.6,0,2.6-4.389,0-4.578-2.625-4.578a2.108,2.108,0,0,0-1.953,1.155,6.839,6.839,0,0,0-.651,3.339Q127.48,79.237,130.1,79.237Zm15.755-1.3a2.424,2.424,0,0,0,.084.756.527.527,0,0,0,.378.294,4.028,4.028,0,0,0,.987.084v.609h-4.6v-.609a4.812,4.812,0,0,0,.945-.063.517.517,0,0,0,.357-.294,2.215,2.215,0,0,0,.084-.735v-5.1a2.528,2.528,0,0,0-.483-1.617,1.7,1.7,0,0,0-1.47-.63,2.347,2.347,0,0,0-1.386.4,4.475,4.475,0,0,0-1.092,1.092v5.859a2.424,2.424,0,0,0,.084.756.463.463,0,0,0,.357.273,4.658,4.658,0,0,0,.924.063v.609h-4.6v-.609a4.028,4.028,0,0,0,.987-.084.464.464,0,0,0,.357-.294,2.306,2.306,0,0,0,.084-.756V71.677a1.331,1.331,0,0,0-.126-.714.54.54,0,0,0-.483-.189h-.714v-.63l2.478-.42h.588v1.554h.021a4.79,4.79,0,0,1,1.533-1.239,4.038,4.038,0,0,1,1.869-.42q2.835,0,2.835,3.024Zm-124.9,18.5a1.732,1.732,0,0,0,.06.54.376.376,0,0,0,.27.21,2.877,2.877,0,0,0,.7.06v.435H18.711v-.435a2.516,2.516,0,0,0,.66-.06.376.376,0,0,0,.27-.21,1.518,1.518,0,0,0,.06-.51V92.818a1.806,1.806,0,0,0-.345-1.155,1.232,1.232,0,0,0-1.065-.45,1.766,1.766,0,0,0-.99.285,2.962,2.962,0,0,0-.78.825v4.14a1.518,1.518,0,0,0,.06.51.369.369,0,0,0,.255.21,2.706,2.706,0,0,0,.675.06v.435H14.226v-.435a2.877,2.877,0,0,0,.7-.06.332.332,0,0,0,.255-.21,1.647,1.647,0,0,0,.06-.54v-7.74a.951.951,0,0,0-.09-.51.386.386,0,0,0-.345-.135H14.3V87.6l1.8-.3h.42v4.32h.045a3.143,3.143,0,0,1,1.05-.84,2.915,2.915,0,0,1,1.32-.285q2.025,0,2.025,2.16Zm5.184,1.41q-3.255,0-3.255-3.675a4.071,4.071,0,0,1,.81-2.745,3.063,3.063,0,0,1,2.46-.945q3.255,0,3.255,3.675T26.145,97.843Zm.015-.48q1.86,0,1.86-3.135,0-3.27-1.875-3.27a1.505,1.505,0,0,0-1.395.825,4.885,4.885,0,0,0-.465,2.385Q24.285,97.363,26.16,97.363Zm15.289-.93a1.732,1.732,0,0,0,.06.54.37.37,0,0,0,.27.225,3.808,3.808,0,0,0,.7.045v.435H39.2v-.435a3.437,3.437,0,0,0,.675-.045.369.369,0,0,0,.255-.21,1.582,1.582,0,0,0,.06-.525V92.818a2.028,2.028,0,0,0-.3-1.17,1.1,1.1,0,0,0-.975-.435,1.521,1.521,0,0,0-.93.3,3.242,3.242,0,0,0-.765.8v4.125a1.732,1.732,0,0,0,.06.54.369.369,0,0,0,.255.21,2.706,2.706,0,0,0,.675.06v.435h-3.24v-.435a3.437,3.437,0,0,0,.675-.045.369.369,0,0,0,.255-.21,1.582,1.582,0,0,0,.06-.525V92.818a2.028,2.028,0,0,0-.3-1.17,1.1,1.1,0,0,0-.975-.435,2.1,2.1,0,0,0-1.7,1.05v4.2a1.732,1.732,0,0,0,.06.54.331.331,0,0,0,.255.195,3.327,3.327,0,0,0,.66.045v.435H30.679v-.435a2.877,2.877,0,0,0,.705-.06.332.332,0,0,0,.255-.21,1.647,1.647,0,0,0,.06-.54v-4.47a.951.951,0,0,0-.09-.51.386.386,0,0,0-.345-.135h-.51v-.45l1.77-.3h.42v1.08h.015a3.023,3.023,0,0,1,2.37-1.155,2.054,2.054,0,0,1,1.215.33,1.549,1.549,0,0,1,.615.885,2.89,2.89,0,0,1,2.4-1.215,1.779,1.779,0,0,1,1.425.54,2.392,2.392,0,0,1,.465,1.62Zm8.114-2.205h-4.77a4.641,4.641,0,0,0,.495,2.205,1.79,1.79,0,0,0,1.68.81,2.011,2.011,0,0,0,1.38-.45,2.64,2.64,0,0,0,.75-1.155l.42.18a3.256,3.256,0,0,1-.975,1.47,3.644,3.644,0,0,1-4.365-.375,4.049,4.049,0,0,1-.78-2.67,4.205,4.205,0,0,1,.81-2.76,2.9,2.9,0,0,1,2.385-.99q2.97,0,2.97,3.6Zm-1.4-.48a4.835,4.835,0,0,0-.345-2.1,1.242,1.242,0,0,0-1.215-.69,1.446,1.446,0,0,0-1.32.7,4.335,4.335,0,0,0-.495,2.085Zm9.662,4.095a3.037,3.037,0,0,1-2.415-.96,3.932,3.932,0,0,1-.84-2.655,4.113,4.113,0,0,1,.84-2.7,3.1,3.1,0,0,1,2.535-1.035,3.379,3.379,0,0,1,1.8.435,1.346,1.346,0,0,1,.7,1.2.907.907,0,0,1-.2.615.713.713,0,0,1-.57.225.772.772,0,0,1-.57-.2.762.762,0,0,1-.2-.54.862.862,0,0,1,.045-.3,1.555,1.555,0,0,1,.165-.255.476.476,0,0,0,.105-.255q0-.195-.315-.33a2.195,2.195,0,0,0-2.37.57,3.877,3.877,0,0,0-.57,2.4q0,3.18,2.16,3.18a2.082,2.082,0,0,0,2.04-1.335l.36.21a2.663,2.663,0,0,1-.825,1.17A2.788,2.788,0,0,1,57.83,97.843Zm7.236,0q-3.255,0-3.255-3.675a4.071,4.071,0,0,1,.81-2.745,3.063,3.063,0,0,1,2.46-.945q3.255,0,3.255,3.675T65.066,97.843Zm.015-.48q1.86,0,1.86-3.135,0-3.27-1.875-3.27a1.505,1.505,0,0,0-1.4.825,4.885,4.885,0,0,0-.465,2.385Q63.206,97.363,65.081,97.363Zm7.954.48q-3.255,0-3.255-3.675a4.071,4.071,0,0,1,.81-2.745,3.063,3.063,0,0,1,2.46-.945q3.255,0,3.255,3.675T73.035,97.843Zm.015-.48q1.86,0,1.86-3.135,0-3.27-1.875-3.27a1.505,1.505,0,0,0-1.395.825,4.885,4.885,0,0,0-.465,2.385Q71.175,97.363,73.05,97.363Zm11.4-.12v.435h-2.91v-.435h.225q.36,0,.36-.165a1.656,1.656,0,0,0-.3-.54L80.1,94.213l-.57.615v1.605a1.732,1.732,0,0,0,.06.54.376.376,0,0,0,.27.21,2.791,2.791,0,0,0,.69.06v.435h-3.33v-.435a2.877,2.877,0,0,0,.705-.06.376.376,0,0,0,.27-.21,1.732,1.732,0,0,0,.06-.54v-7.74a.951.951,0,0,0-.09-.51.4.4,0,0,0-.36-.135h-.51V87.6l1.815-.3h.42v6.915l2.085-2.295a1.154,1.154,0,0,0,.36-.615q0-.21-.285-.21H81.4v-.435h2.73v.435h-.21a1.893,1.893,0,0,0-1.035.285,5.136,5.136,0,0,0-1,.9l-.975,1.065,2.01,2.685a7.058,7.058,0,0,0,.81.975.888.888,0,0,0,.57.24Zm3.429.6a3,3,0,0,1-.72-.075,5.012,5.012,0,0,1-.585-.2,1.6,1.6,0,0,0-.525-.135.363.363,0,0,0-.24.075.631.631,0,0,0-.15.21H85.37l-.15-2.475h.3a3.275,3.275,0,0,0,.87,1.59,2.018,2.018,0,0,0,1.395.525,1.623,1.623,0,0,0,1.05-.315,1.115,1.115,0,0,0,.405-.915,1.041,1.041,0,0,0-.225-.69,1.668,1.668,0,0,0-.54-.45,9.863,9.863,0,0,0-.93-.405l-.375-.135a4.526,4.526,0,0,1-1.35-.78,1.54,1.54,0,0,1-.42-1.14,1.815,1.815,0,0,1,.66-1.485,2.7,2.7,0,0,1,1.77-.555,3.085,3.085,0,0,1,.585.045,4.926,4.926,0,0,1,.51.135,1.829,1.829,0,0,0,.39.09.293.293,0,0,0,.21-.06.371.371,0,0,0,.075-.135.263.263,0,0,0,.03-.075h.27l.1,2.2h-.3q-.4-1.74-1.8-1.74a1.667,1.667,0,0,0-1.02.3.939.939,0,0,0-.39.78,1.038,1.038,0,0,0,.375.81,3.19,3.19,0,0,0,.93.51l.405.135a4.8,4.8,0,0,1,1.65.87,1.657,1.657,0,0,1,.54,1.305,1.968,1.968,0,0,1-.7,1.575A2.7,2.7,0,0,1,87.875,97.843Zm13.99-.405a2.87,2.87,0,0,1-.585.285,2.408,2.408,0,0,1-.78.105,1.135,1.135,0,0,1-.69-.18,1.1,1.1,0,0,1-.27-.78,5.05,5.05,0,0,1-1.08.735,2.782,2.782,0,0,1-1.17.24,2.268,2.268,0,0,1-1.35-.375,1.331,1.331,0,0,1-.51-1.125,2.245,2.245,0,0,1,1.065-1.83,7.02,7.02,0,0,1,3.045-1.095v-.87a1.743,1.743,0,0,0-.315-1.14,1.275,1.275,0,0,0-1.05-.375,2.218,2.218,0,0,0-.945.195q-.42.2-.42.39a.325.325,0,0,0,.135.225.8.8,0,0,1,.225.225.5.5,0,0,1,.09.33.722.722,0,0,1-.18.51.69.69,0,0,1-.51.18.75.75,0,0,1-.555-.21.827.827,0,0,1-.2-.585,1.434,1.434,0,0,1,.3-.87,2.224,2.224,0,0,1,.93-.66,4.081,4.081,0,0,1,1.53-.255,2.534,2.534,0,0,1,1.68.465,2.051,2.051,0,0,1,.54,1.62v3.555a1.9,1.9,0,0,0,.12.81.464.464,0,0,0,.42.21,1.074,1.074,0,0,0,.42-.105ZM96.78,95.983a1.015,1.015,0,0,0,.3.8,1.309,1.309,0,0,0,.87.255,1.814,1.814,0,0,0,.8-.18,4.545,4.545,0,0,0,.8-.48V93.9a5.511,5.511,0,0,0-2.085.81A1.516,1.516,0,0,0,96.78,95.983Zm20.152.45a1.732,1.732,0,0,0,.06.54.37.37,0,0,0,.27.225,3.808,3.808,0,0,0,.7.045v.435h-3.285v-.435a3.437,3.437,0,0,0,.675-.045.369.369,0,0,0,.255-.21,1.582,1.582,0,0,0,.06-.525V92.818a2.028,2.028,0,0,0-.3-1.17,1.1,1.1,0,0,0-.975-.435,1.521,1.521,0,0,0-.93.3,3.242,3.242,0,0,0-.765.8v4.125a1.732,1.732,0,0,0,.06.54.369.369,0,0,0,.255.21,2.706,2.706,0,0,0,.675.06v.435h-3.24v-.435a3.437,3.437,0,0,0,.675-.045.369.369,0,0,0,.255-.21,1.582,1.582,0,0,0,.06-.525V92.818a2.028,2.028,0,0,0-.3-1.17,1.1,1.1,0,0,0-.975-.435,2.1,2.1,0,0,0-1.7,1.05v4.2a1.732,1.732,0,0,0,.06.54.331.331,0,0,0,.255.195,3.327,3.327,0,0,0,.66.045v.435h-3.285v-.435a2.877,2.877,0,0,0,.7-.06.332.332,0,0,0,.255-.21,1.647,1.647,0,0,0,.06-.54v-4.47a.951.951,0,0,0-.09-.51.386.386,0,0,0-.345-.135h-.51v-.45l1.77-.3h.42v1.08h.015a3.023,3.023,0,0,1,2.37-1.155,2.054,2.054,0,0,1,1.215.33,1.549,1.549,0,0,1,.615.885,2.89,2.89,0,0,1,2.4-1.215,1.779,1.779,0,0,1,1.425.54,2.392,2.392,0,0,1,.465,1.62Zm5.189,1.41q-3.255,0-3.255-3.675a4.071,4.071,0,0,1,.81-2.745,3.063,3.063,0,0,1,2.46-.945q3.255,0,3.255,3.675T122.121,97.843Zm.015-.48q1.86,0,1.86-3.135,0-3.27-1.875-3.27a1.505,1.505,0,0,0-1.395.825,4.885,4.885,0,0,0-.465,2.385Q120.261,97.363,122.136,97.363Zm11.254-.93a1.732,1.732,0,0,0,.06.54.376.376,0,0,0,.27.21,2.877,2.877,0,0,0,.705.06v.435H131.14v-.435a3.437,3.437,0,0,0,.675-.045.369.369,0,0,0,.255-.21,1.582,1.582,0,0,0,.06-.525V92.818a1.806,1.806,0,0,0-.345-1.155,1.215,1.215,0,0,0-1.05-.45,1.677,1.677,0,0,0-.99.285,3.2,3.2,0,0,0-.78.78v4.185a1.732,1.732,0,0,0,.06.54.331.331,0,0,0,.255.195,3.327,3.327,0,0,0,.66.045v.435h-3.285v-.435a2.877,2.877,0,0,0,.7-.06.332.332,0,0,0,.255-.21,1.647,1.647,0,0,0,.06-.54v-4.47a.951.951,0,0,0-.09-.51.386.386,0,0,0-.345-.135h-.51v-.45l1.77-.3h.42v1.11h.015a3.421,3.421,0,0,1,1.095-.885,2.884,2.884,0,0,1,1.335-.3q2.025,0,2.025,2.16Zm4.112,1.41a1.593,1.593,0,0,1-1.05-.36,1.527,1.527,0,0,1-.42-1.215v-5.13h-1.095v-.45q1.56-.165,1.935-2.31h.435v2.28h1.665v.48h-1.665v4.905a1.649,1.649,0,0,0,.18.885.674.674,0,0,0,.57.255,1.3,1.3,0,0,0,.5-.105,2.5,2.5,0,0,0,.435-.255l.165.36a5.15,5.15,0,0,1-.795.495A1.915,1.915,0,0,1,137.5,97.843Zm8.966-1.41a1.732,1.732,0,0,0,.06.54.376.376,0,0,0,.27.21,2.877,2.877,0,0,0,.7.06v.435h-3.285v-.435a2.516,2.516,0,0,0,.66-.06.376.376,0,0,0,.27-.21,1.518,1.518,0,0,0,.06-.51V92.818a1.806,1.806,0,0,0-.345-1.155,1.232,1.232,0,0,0-1.065-.45,1.766,1.766,0,0,0-.99.285,2.962,2.962,0,0,0-.78.825v4.14a1.518,1.518,0,0,0,.06.51.369.369,0,0,0,.255.21,2.706,2.706,0,0,0,.675.06v.435h-3.285v-.435a2.877,2.877,0,0,0,.7-.06.332.332,0,0,0,.255-.21,1.647,1.647,0,0,0,.06-.54v-7.74a.951.951,0,0,0-.09-.51.386.386,0,0,0-.345-.135h-.51V87.6l1.8-.3h.42v4.32h.045a3.143,3.143,0,0,1,1.05-.84,2.915,2.915,0,0,1,1.32-.285q2.025,0,2.025,2.16Z" class="homepage-eat-b"/>
                        <path d="M287.479,79.93a5.8,5.8,0,0,1-4.767-1.953,8.1,8.1,0,0,1-1.575-5.208,8.158,8.158,0,0,1,1.575-5.208,6.718,6.718,0,0,1,9.555,0,8.158,8.158,0,0,1,1.575,5.208,8.031,8.031,0,0,1-1.6,5.208A5.759,5.759,0,0,1,287.479,79.93Zm.021-.714a3.28,3.28,0,0,0,3.192-1.827,10.285,10.285,0,0,0,.924-4.62,10.381,10.381,0,0,0-.9-4.7,3.784,3.784,0,0,0-6.426,0,10.381,10.381,0,0,0-.9,4.7,10.285,10.285,0,0,0,.924,4.62A3.28,3.28,0,0,0,287.5,79.216Zm8.757-7.9a1.4,1.4,0,0,0-.483-.693,1.791,1.791,0,0,0-.924-.168V69.85h4.368v.609h-.84q-.4,0-.4.357a.856.856,0,0,0,.063.294l2.394,6.573h.063l2.373-6.594a1.149,1.149,0,0,0,.042-.252q0-.378-.357-.378h-.924V69.85h3.528v.609a1.738,1.738,0,0,0-.945.189,1.389,1.389,0,0,0-.483.672l-3.318,8.358h-1.008Zm17.832,3.528h-6.678a6.5,6.5,0,0,0,.693,3.087,2.506,2.506,0,0,0,2.352,1.134,2.816,2.816,0,0,0,1.932-.63,3.7,3.7,0,0,0,1.05-1.617l.588.252a4.558,4.558,0,0,1-1.365,2.058,5.1,5.1,0,0,1-6.111-.525,5.668,5.668,0,0,1-1.092-3.738,5.888,5.888,0,0,1,1.134-3.864,4.063,4.063,0,0,1,3.339-1.386q4.158,0,4.158,5.04Zm-1.953-.672a6.77,6.77,0,0,0-.483-2.94,1.739,1.739,0,0,0-1.7-.966,2.025,2.025,0,0,0-1.848.987,6.068,6.068,0,0,0-.693,2.919Zm9.447-4.578a1.478,1.478,0,0,1,1.155.441,1.694,1.694,0,0,1,.42,1.218,1.509,1.509,0,0,1-.294.987,1.1,1.1,0,0,1-.9.357,1.158,1.158,0,0,1-.819-.273.966.966,0,0,1-.273-.714.935.935,0,0,1,.084-.42,1.687,1.687,0,0,1,.252-.357.535.535,0,0,0,.168-.294q0-.189-.273-.189a1.366,1.366,0,0,0-.861.4,3.525,3.525,0,0,0-.777,1.092,4.254,4.254,0,0,0-.42,1.47v4.62a2.519,2.519,0,0,0,.084.777.611.611,0,0,0,.42.294,6.226,6.226,0,0,0,1.071.063v.609h-4.809v-.609a4.028,4.028,0,0,0,.987-.084.464.464,0,0,0,.357-.294,2.306,2.306,0,0,0,.084-.756V71.677a1.331,1.331,0,0,0-.126-.714.54.54,0,0,0-.483-.189h-.714v-.63l2.478-.42h.588V71.7H319a6.412,6.412,0,0,1,1.05-1.491A2.035,2.035,0,0,1,321.583,69.6Zm11.839,10.311a5.874,5.874,0,0,1-2.982-.693,2.129,2.129,0,0,1-1.176-1.911A1.414,1.414,0,0,1,329.6,76.3a1.214,1.214,0,0,1,.924-.378,1.05,1.05,0,0,1,.777.294,1.065,1.065,0,0,1,.315.819.968.968,0,0,1-.063.378,1.254,1.254,0,0,1-.147.315.729.729,0,0,0-.147.42.908.908,0,0,0,.525.777,2.792,2.792,0,0,0,1.407.315,2.713,2.713,0,0,0,2.205-.9,3.847,3.847,0,0,0,.777-2.583q0-3.276-3.045-3.276l-.924.042v-.84q.588.042.924.042a2.179,2.179,0,0,0,1.827-.777,3.087,3.087,0,0,0,.63-1.974A3.054,3.054,0,0,0,335,67.036a1.981,1.981,0,0,0-1.68-.777,2.5,2.5,0,0,0-1.239.294.853.853,0,0,0-.525.735,1.032,1.032,0,0,0,.168.441,1.291,1.291,0,0,1,.21.693,1.039,1.039,0,0,1-.315.8,1.127,1.127,0,0,1-.8.273,1.22,1.22,0,0,1-.9-.336,1.308,1.308,0,0,1-.336-.966,2.125,2.125,0,0,1,1.2-1.911,5.649,5.649,0,0,1,2.877-.693,4.733,4.733,0,0,1,2.877.819,2.853,2.853,0,0,1,1.113,2.457,2.947,2.947,0,0,1-.672,2.058,3.433,3.433,0,0,1-2.037,1.05v.063a3.473,3.473,0,0,1,1.6.483,3.206,3.206,0,0,1,1.26,1.26,3.98,3.98,0,0,1,.483,2.016,3.733,3.733,0,0,1-1.3,3.024A5.351,5.351,0,0,1,333.422,79.909Zm7.1,1.47a2.215,2.215,0,0,0,.945-.462.936.936,0,0,0,.378-.777.4.4,0,0,0-.357-.42A1.2,1.2,0,0,1,340.8,77.7a1.211,1.211,0,0,1,.861-.336,1.1,1.1,0,0,1,.882.4,1.819,1.819,0,0,1,.357,1.239,3.2,3.2,0,0,1-.567,1.869,2.451,2.451,0,0,1-1.722,1.05Zm8.716-1.47a3.949,3.949,0,0,1-3.591-2,10.006,10.006,0,0,1-1.2-5.166,9.89,9.89,0,0,1,1.2-5.145,4.206,4.206,0,0,1,7.182,0,9.753,9.753,0,0,1,1.218,5.145,9.867,9.867,0,0,1-1.218,5.166A3.949,3.949,0,0,1,349.243,79.909Zm0-.672a2.062,2.062,0,0,0,1.638-.672,4.135,4.135,0,0,0,.819-2.058,22.255,22.255,0,0,0,.252-3.759,21.867,21.867,0,0,0-.252-3.738,4.164,4.164,0,0,0-.819-2.079,2.282,2.282,0,0,0-3.276,0,4.293,4.293,0,0,0-.84,2.079,23.82,23.82,0,0,0-.231,3.738,24.523,24.523,0,0,0,.231,3.822,4.258,4.258,0,0,0,.819,2.037A2.158,2.158,0,0,0,349.243,79.237Zm11.433.672a3.949,3.949,0,0,1-3.591-2,10.006,10.006,0,0,1-1.2-5.166,9.89,9.89,0,0,1,1.2-5.145,4.206,4.206,0,0,1,7.182,0,9.753,9.753,0,0,1,1.218,5.145,9.867,9.867,0,0,1-1.218,5.166A3.949,3.949,0,0,1,360.676,79.909Zm0-.672a2.062,2.062,0,0,0,1.638-.672,4.135,4.135,0,0,0,.819-2.058,22.255,22.255,0,0,0,.252-3.759,21.867,21.867,0,0,0-.252-3.738,4.164,4.164,0,0,0-.819-2.079,2.282,2.282,0,0,0-3.276,0,4.293,4.293,0,0,0-.84,2.079,23.82,23.82,0,0,0-.231,3.738,24.523,24.523,0,0,0,.231,3.822,4.258,4.258,0,0,0,.819,2.037A2.158,2.158,0,0,0,360.676,79.237Zm11.433.672a3.949,3.949,0,0,1-3.591-2,10.006,10.006,0,0,1-1.2-5.166,9.89,9.89,0,0,1,1.2-5.145,4.206,4.206,0,0,1,7.182,0,9.753,9.753,0,0,1,1.218,5.145,9.867,9.867,0,0,1-1.218,5.166A3.949,3.949,0,0,1,372.109,79.909Zm0-.672a2.062,2.062,0,0,0,1.638-.672,4.135,4.135,0,0,0,.819-2.058,22.255,22.255,0,0,0,.252-3.759,21.867,21.867,0,0,0-.252-3.738,4.164,4.164,0,0,0-.819-2.079,2.282,2.282,0,0,0-3.276,0,4.293,4.293,0,0,0-.84,2.079,23.82,23.82,0,0,0-.231,3.738,24.523,24.523,0,0,0,.231,3.822,4.258,4.258,0,0,0,.819,2.037A2.158,2.158,0,0,0,372.109,79.237Zm11.851.606a1.593,1.593,0,0,1-1.05-.36,1.527,1.527,0,0,1-.42-1.215v-5.13h-1.1v-.45q1.56-.165,1.935-2.31h.435v2.28h1.665v.48h-1.665v4.905a1.649,1.649,0,0,0,.18.885.674.674,0,0,0,.57.255,1.3,1.3,0,0,0,.5-.105,2.5,2.5,0,0,0,.435-.255l.165.36a5.15,5.15,0,0,1-.8.495A1.915,1.915,0,0,1,383.96,79.843Zm8.711-3.615H387.9a4.641,4.641,0,0,0,.5,2.205,1.79,1.79,0,0,0,1.68.81,2.011,2.011,0,0,0,1.38-.45,2.64,2.64,0,0,0,.75-1.155l.42.18a3.256,3.256,0,0,1-.975,1.47,3.644,3.644,0,0,1-4.365-.375,4.049,4.049,0,0,1-.78-2.67,4.205,4.205,0,0,1,.81-2.76,2.9,2.9,0,0,1,2.385-.99q2.97,0,2.97,3.6Zm-1.395-.48a4.835,4.835,0,0,0-.345-2.1,1.242,1.242,0,0,0-1.215-.69,1.446,1.446,0,0,0-1.32.7,4.335,4.335,0,0,0-.5,2.085Zm5.488,4.095a3,3,0,0,1-.72-.075,5.012,5.012,0,0,1-.585-.2,1.6,1.6,0,0,0-.525-.135.363.363,0,0,0-.24.075.631.631,0,0,0-.15.21h-.285l-.15-2.475h.3a3.275,3.275,0,0,0,.87,1.59,2.018,2.018,0,0,0,1.395.525,1.623,1.623,0,0,0,1.05-.315,1.115,1.115,0,0,0,.405-.915,1.041,1.041,0,0,0-.225-.69,1.668,1.668,0,0,0-.54-.45,9.863,9.863,0,0,0-.93-.405l-.375-.135a4.526,4.526,0,0,1-1.35-.78,1.54,1.54,0,0,1-.42-1.14,1.815,1.815,0,0,1,.66-1.485,2.7,2.7,0,0,1,1.77-.555,3.085,3.085,0,0,1,.585.045,4.926,4.926,0,0,1,.51.135,1.829,1.829,0,0,0,.39.09.293.293,0,0,0,.21-.06.371.371,0,0,0,.075-.135.263.263,0,0,0,.03-.075h.27l.105,2.2h-.3q-.4-1.74-1.8-1.74a1.667,1.667,0,0,0-1.02.3.939.939,0,0,0-.39.78,1.038,1.038,0,0,0,.375.81,3.19,3.19,0,0,0,.93.51l.4.135a4.8,4.8,0,0,1,1.65.87,1.657,1.657,0,0,1,.54,1.305,1.968,1.968,0,0,1-.7,1.575A2.7,2.7,0,0,1,396.764,79.843Zm5.946,0a1.593,1.593,0,0,1-1.05-.36,1.527,1.527,0,0,1-.42-1.215v-5.13h-1.1v-.45q1.56-.165,1.935-2.31h.435v2.28h1.665v.48h-1.665v4.905a1.649,1.649,0,0,0,.18.885.674.674,0,0,0,.57.255,1.3,1.3,0,0,0,.5-.105,2.5,2.5,0,0,0,.435-.255l.165.36a5.15,5.15,0,0,1-.8.495A1.915,1.915,0,0,1,402.71,79.843Zm8.711-3.615h-4.77a4.641,4.641,0,0,0,.5,2.205,1.79,1.79,0,0,0,1.68.81,2.011,2.011,0,0,0,1.38-.45,2.64,2.64,0,0,0,.75-1.155l.42.18a3.256,3.256,0,0,1-.975,1.47,3.644,3.644,0,0,1-4.365-.375,4.049,4.049,0,0,1-.78-2.67,4.205,4.205,0,0,1,.81-2.76,2.9,2.9,0,0,1,2.385-.99q2.97,0,2.97,3.6Zm-1.395-.48a4.835,4.835,0,0,0-.345-2.1,1.242,1.242,0,0,0-1.215-.69,1.446,1.446,0,0,0-1.32.7,4.335,4.335,0,0,0-.5,2.085Zm10.018,3.495v.435h-2.1l-.105-.72a5,5,0,0,1-1.02.645,2.96,2.96,0,0,1-1.275.255,2.4,2.4,0,0,1-2.025-.915,4.355,4.355,0,0,1-.69-2.655,4.173,4.173,0,0,1,.84-2.865,2.992,2.992,0,0,1,2.34-.93,2.789,2.789,0,0,1,1.74.585v-.06h.045v-2.28a1.084,1.084,0,0,0-.09-.54.4.4,0,0,0-.36-.135h-.54v-.435l1.845-.33h.4v9.24a.962.962,0,0,0,.12.57.672.672,0,0,0,.48.135Zm-5.805-3.135q0,3.12,1.83,3.12a1.739,1.739,0,0,0,.885-.225,5.09,5.09,0,0,0,.84-.63v-4.65a2.212,2.212,0,0,0-1.62-.765,1.632,1.632,0,0,0-1.455.75A4.593,4.593,0,0,0,414.239,76.108ZM286.185,97.438a2.87,2.87,0,0,1-.585.285,2.408,2.408,0,0,1-.78.105,1.135,1.135,0,0,1-.69-.18,1.1,1.1,0,0,1-.27-.78,5.05,5.05,0,0,1-1.08.735,2.782,2.782,0,0,1-1.17.24,2.268,2.268,0,0,1-1.35-.375,1.331,1.331,0,0,1-.51-1.125,2.245,2.245,0,0,1,1.065-1.83,7.02,7.02,0,0,1,3.045-1.095v-.87a1.743,1.743,0,0,0-.315-1.14,1.275,1.275,0,0,0-1.05-.375,2.218,2.218,0,0,0-.945.195q-.42.2-.42.39a.325.325,0,0,0,.135.225.8.8,0,0,1,.225.225.5.5,0,0,1,.09.33.722.722,0,0,1-.18.51.69.69,0,0,1-.51.18.75.75,0,0,1-.555-.21.827.827,0,0,1-.195-.585,1.434,1.434,0,0,1,.3-.87,2.224,2.224,0,0,1,.93-.66,4.081,4.081,0,0,1,1.53-.255,2.534,2.534,0,0,1,1.68.465,2.051,2.051,0,0,1,.54,1.62v3.555a1.9,1.9,0,0,0,.12.81.464.464,0,0,0,.42.21,1.074,1.074,0,0,0,.42-.105ZM281.1,95.983a1.015,1.015,0,0,0,.3.8,1.309,1.309,0,0,0,.87.255,1.814,1.814,0,0,0,.8-.18,4.545,4.545,0,0,0,.8-.48V93.9a5.511,5.511,0,0,0-2.085.81A1.516,1.516,0,0,0,281.1,95.983Zm12.529.45a1.732,1.732,0,0,0,.06.54.376.376,0,0,0,.27.21,2.877,2.877,0,0,0,.7.06v.435h-3.285v-.435a3.437,3.437,0,0,0,.675-.045.369.369,0,0,0,.255-.21,1.582,1.582,0,0,0,.06-.525V92.818a1.806,1.806,0,0,0-.345-1.155,1.215,1.215,0,0,0-1.05-.45,1.677,1.677,0,0,0-.99.285,3.2,3.2,0,0,0-.78.78v4.185a1.732,1.732,0,0,0,.06.54.331.331,0,0,0,.255.195,3.327,3.327,0,0,0,.66.045v.435h-3.285v-.435a2.877,2.877,0,0,0,.7-.06.332.332,0,0,0,.255-.21,1.647,1.647,0,0,0,.06-.54v-4.47a.951.951,0,0,0-.09-.51.386.386,0,0,0-.345-.135h-.51v-.45l1.77-.3h.42v1.11h.015a3.421,3.421,0,0,1,1.1-.885,2.884,2.884,0,0,1,1.335-.3q2.025,0,2.025,2.16Zm9.141.81v.435h-2.1l-.105-.72a5,5,0,0,1-1.02.645,2.96,2.96,0,0,1-1.275.255,2.4,2.4,0,0,1-2.025-.915,4.355,4.355,0,0,1-.69-2.655,4.173,4.173,0,0,1,.84-2.865,2.992,2.992,0,0,1,2.34-.93,2.789,2.789,0,0,1,1.74.585v-.06h.045v-2.28a1.084,1.084,0,0,0-.09-.54.4.4,0,0,0-.36-.135h-.54v-.435l1.845-.33h.4v9.24a.962.962,0,0,0,.12.57.672.672,0,0,0,.48.135Zm-5.805-3.135q0,3.12,1.83,3.12A1.739,1.739,0,0,0,299.68,97a5.09,5.09,0,0,0,.84-.63v-4.65a2.212,2.212,0,0,0-1.62-.765,1.632,1.632,0,0,0-1.455.75A4.593,4.593,0,0,0,296.965,94.108Zm14.686-3.615a2.429,2.429,0,0,1,2.04.885,4.217,4.217,0,0,1,.69,2.625,4.32,4.32,0,0,1-.84,2.91,2.95,2.95,0,0,1-2.325.945,2.5,2.5,0,0,1-.99-.18,3.062,3.062,0,0,1-.8-.465v2.221a1.582,1.582,0,0,0,.06.525.424.424,0,0,0,.3.225,3.262,3.262,0,0,0,.75.06v.435h-3.4v-.435a2.768,2.768,0,0,0,.7-.06.3.3,0,0,0,.255-.21,1.647,1.647,0,0,0,.06-.54V91.9a.769.769,0,0,0-.105-.48q-.09-.12-.4-.12h-.45v-.435l1.785-.3h.405V91.3a3.694,3.694,0,0,1,.96-.57A3.338,3.338,0,0,1,311.651,90.493Zm-.6,6.885q1.935,0,1.935-3.18a4.694,4.694,0,0,0-.45-2.28,1.477,1.477,0,0,0-1.38-.81,2.623,2.623,0,0,0-1.725.75v4.755A2.149,2.149,0,0,0,311.051,97.378Zm8.722-6.9a1.056,1.056,0,0,1,.825.315,1.21,1.21,0,0,1,.3.87,1.078,1.078,0,0,1-.21.7.787.787,0,0,1-.645.255.827.827,0,0,1-.585-.2.69.69,0,0,1-.2-.51.668.668,0,0,1,.06-.3,1.205,1.205,0,0,1,.18-.255.382.382,0,0,0,.12-.21q0-.135-.195-.135a.976.976,0,0,0-.615.285,2.518,2.518,0,0,0-.555.78,3.038,3.038,0,0,0-.3,1.05v3.3a1.8,1.8,0,0,0,.06.555.436.436,0,0,0,.3.21,4.447,4.447,0,0,0,.765.045v.435h-3.435v-.435a2.877,2.877,0,0,0,.7-.06.332.332,0,0,0,.255-.21,1.647,1.647,0,0,0,.06-.54v-4.47a.951.951,0,0,0-.09-.51.386.386,0,0,0-.345-.135h-.51v-.45l1.77-.3h.42v1.41h.015a4.58,4.58,0,0,1,.75-1.065A1.454,1.454,0,0,1,319.773,90.478Zm4.906,7.365q-3.255,0-3.255-3.675a4.071,4.071,0,0,1,.81-2.745,3.063,3.063,0,0,1,2.46-.945q3.255,0,3.255,3.675T324.679,97.843Zm.015-.48q1.86,0,1.86-3.135,0-3.27-1.875-3.27a1.505,1.505,0,0,0-1.395.825,4.885,4.885,0,0,0-.465,2.385Q322.819,97.363,324.694,97.363Zm4.924-5.655a1,1,0,0,0-.345-.5,1.279,1.279,0,0,0-.66-.12v-.435h3.12v.435h-.6q-.285,0-.285.255a.611.611,0,0,0,.045.21l1.71,4.695h.045l1.695-4.71a.821.821,0,0,0,.03-.18q0-.27-.255-.27h-.66v-.435h2.52v.435a1.241,1.241,0,0,0-.675.135.992.992,0,0,0-.345.48l-2.37,5.97h-.72Zm12.737,2.52h-4.77a4.641,4.641,0,0,0,.5,2.205,1.79,1.79,0,0,0,1.68.81,2.011,2.011,0,0,0,1.38-.45,2.64,2.64,0,0,0,.75-1.155l.42.18a3.256,3.256,0,0,1-.975,1.47,3.644,3.644,0,0,1-4.365-.375,4.049,4.049,0,0,1-.78-2.67,4.205,4.205,0,0,1,.81-2.76,2.9,2.9,0,0,1,2.385-.99q2.97,0,2.97,3.6Zm-1.4-.48a4.835,4.835,0,0,0-.345-2.1,1.242,1.242,0,0,0-1.215-.69,1.446,1.446,0,0,0-1.32.7,4.335,4.335,0,0,0-.5,2.085Zm9.358,2.685a1.732,1.732,0,0,0,.06.54.376.376,0,0,0,.27.21,2.877,2.877,0,0,0,.7.06v.435h-3.285v-.435a3.437,3.437,0,0,0,.675-.045.369.369,0,0,0,.255-.21,1.582,1.582,0,0,0,.06-.525V92.818a1.806,1.806,0,0,0-.345-1.155,1.215,1.215,0,0,0-1.05-.45,1.677,1.677,0,0,0-.99.285,3.2,3.2,0,0,0-.78.78v4.185a1.732,1.732,0,0,0,.06.54.331.331,0,0,0,.255.195,3.327,3.327,0,0,0,.66.045v.435h-3.285v-.435a2.877,2.877,0,0,0,.7-.06.332.332,0,0,0,.255-.21,1.647,1.647,0,0,0,.06-.54v-4.47a.951.951,0,0,0-.09-.51.386.386,0,0,0-.345-.135h-.51v-.45l1.77-.3h.42v1.11h.015a3.421,3.421,0,0,1,1.1-.885,2.884,2.884,0,0,1,1.335-.3q2.025,0,2.025,2.16Zm9.783-5.955a1.056,1.056,0,0,1,.825.315,1.21,1.21,0,0,1,.3.87,1.078,1.078,0,0,1-.21.7.787.787,0,0,1-.645.255.827.827,0,0,1-.585-.2.69.69,0,0,1-.195-.51.668.668,0,0,1,.06-.3,1.205,1.205,0,0,1,.18-.255.382.382,0,0,0,.12-.21q0-.135-.2-.135a.976.976,0,0,0-.615.285,2.518,2.518,0,0,0-.555.78,3.038,3.038,0,0,0-.3,1.05v3.3a1.8,1.8,0,0,0,.06.555.436.436,0,0,0,.3.21,4.447,4.447,0,0,0,.765.045v.435h-3.435v-.435a2.877,2.877,0,0,0,.7-.06.332.332,0,0,0,.255-.21,1.647,1.647,0,0,0,.06-.54v-4.47a.951.951,0,0,0-.09-.51.386.386,0,0,0-.345-.135h-.51v-.45l1.77-.3h.42v1.41h.015a4.58,4.58,0,0,1,.75-1.065A1.454,1.454,0,0,1,360.1,90.478Zm7.83,3.75h-4.77a4.641,4.641,0,0,0,.5,2.205,1.79,1.79,0,0,0,1.68.81,2.011,2.011,0,0,0,1.38-.45,2.64,2.64,0,0,0,.75-1.155l.42.18a3.256,3.256,0,0,1-.975,1.47,3.644,3.644,0,0,1-4.365-.375,4.049,4.049,0,0,1-.78-2.67,4.205,4.205,0,0,1,.81-2.76,2.9,2.9,0,0,1,2.385-.99q2.97,0,2.97,3.6Zm-1.395-.48a4.835,4.835,0,0,0-.345-2.1,1.242,1.242,0,0,0-1.215-.69,1.446,1.446,0,0,0-1.32.7,4.335,4.335,0,0,0-.5,2.085Zm6.073,4.095a3.037,3.037,0,0,1-2.415-.96,3.932,3.932,0,0,1-.84-2.655,4.113,4.113,0,0,1,.84-2.7,3.1,3.1,0,0,1,2.535-1.035,3.379,3.379,0,0,1,1.8.435,1.346,1.346,0,0,1,.7,1.2.907.907,0,0,1-.195.615.713.713,0,0,1-.57.225.772.772,0,0,1-.57-.2.762.762,0,0,1-.195-.54.862.862,0,0,1,.045-.3,1.555,1.555,0,0,1,.165-.255.476.476,0,0,0,.105-.255q0-.195-.315-.33a2.195,2.195,0,0,0-2.37.57,3.877,3.877,0,0,0-.57,2.4q0,3.18,2.16,3.18a2.082,2.082,0,0,0,2.04-1.335l.36.21a2.663,2.663,0,0,1-.825,1.17A2.788,2.788,0,0,1,372.609,97.843Zm5.406-8.595a.843.843,0,0,1-.6-.225.824.824,0,0,1-.225-.585.843.843,0,0,1,.225-.6.814.814,0,0,1,.6-.24.783.783,0,0,1,.6.24.843.843,0,0,1,.225.6.795.795,0,0,1-.825.81Zm-1.62,7.995a2.877,2.877,0,0,0,.705-.06.332.332,0,0,0,.255-.21,1.647,1.647,0,0,0,.06-.54v-4.47a.951.951,0,0,0-.09-.51q-.075-.135-.345-.135h-.51v-.45l1.815-.3h.42v5.865a1.8,1.8,0,0,0,.06.555.369.369,0,0,0,.255.21,3.808,3.808,0,0,0,.705.045v.435H376.4Zm8.909-6.75a2.429,2.429,0,0,1,2.04.885,4.217,4.217,0,0,1,.69,2.625,4.32,4.32,0,0,1-.84,2.91,2.95,2.95,0,0,1-2.325.945,2.5,2.5,0,0,1-.99-.18,3.062,3.062,0,0,1-.8-.465v2.221a1.582,1.582,0,0,0,.06.525.424.424,0,0,0,.3.225,3.262,3.262,0,0,0,.75.06v.435h-3.405v-.435a2.768,2.768,0,0,0,.705-.06.3.3,0,0,0,.255-.21,1.647,1.647,0,0,0,.06-.54V91.9a.769.769,0,0,0-.105-.48q-.09-.12-.405-.12h-.45v-.435l1.785-.3h.4V91.3a3.694,3.694,0,0,1,.96-.57A3.338,3.338,0,0,1,385.3,90.493Zm-.6,6.885q1.935,0,1.935-3.18a4.694,4.694,0,0,0-.45-2.28,1.477,1.477,0,0,0-1.38-.81,2.623,2.623,0,0,0-1.725.75v4.755A2.149,2.149,0,0,0,384.7,97.378Zm10.957-3.15h-4.77a4.641,4.641,0,0,0,.5,2.205,1.79,1.79,0,0,0,1.68.81,2.011,2.011,0,0,0,1.38-.45,2.64,2.64,0,0,0,.75-1.155l.42.18a3.256,3.256,0,0,1-.975,1.47,3.644,3.644,0,0,1-4.365-.375,4.049,4.049,0,0,1-.78-2.67,4.205,4.205,0,0,1,.81-2.76,2.9,2.9,0,0,1,2.385-.99q2.97,0,2.97,3.6Zm-1.395-.48a4.835,4.835,0,0,0-.345-2.1,1.242,1.242,0,0,0-1.215-.69,1.446,1.446,0,0,0-1.32.7,4.335,4.335,0,0,0-.5,2.085Zm5.488,4.095a3,3,0,0,1-.72-.075,5.012,5.012,0,0,1-.585-.2,1.6,1.6,0,0,0-.525-.135.363.363,0,0,0-.24.075.631.631,0,0,0-.15.21h-.285l-.15-2.475h.3a3.275,3.275,0,0,0,.87,1.59,2.018,2.018,0,0,0,1.395.525,1.623,1.623,0,0,0,1.05-.315,1.115,1.115,0,0,0,.405-.915,1.041,1.041,0,0,0-.225-.69,1.668,1.668,0,0,0-.54-.45,9.863,9.863,0,0,0-.93-.405l-.375-.135a4.526,4.526,0,0,1-1.35-.78,1.54,1.54,0,0,1-.42-1.14,1.815,1.815,0,0,1,.66-1.485,2.7,2.7,0,0,1,1.77-.555,3.085,3.085,0,0,1,.585.045,4.926,4.926,0,0,1,.51.135,1.829,1.829,0,0,0,.39.09.293.293,0,0,0,.21-.06.371.371,0,0,0,.075-.135.263.263,0,0,0,.03-.075h.27l.105,2.2h-.3q-.4-1.74-1.8-1.74a1.667,1.667,0,0,0-1.02.3.939.939,0,0,0-.39.78,1.038,1.038,0,0,0,.375.81,3.19,3.19,0,0,0,.93.51l.405.135a4.8,4.8,0,0,1,1.65.87,1.657,1.657,0,0,1,.54,1.305,1.968,1.968,0,0,1-.7,1.575A2.7,2.7,0,0,1,399.754,97.843Z" class="homepage-eat-a"/>
                        <path d="M287.479,79.93a5.8,5.8,0,0,1-4.767-1.953,8.1,8.1,0,0,1-1.575-5.208,8.158,8.158,0,0,1,1.575-5.208,6.718,6.718,0,0,1,9.555,0,8.158,8.158,0,0,1,1.575,5.208,8.031,8.031,0,0,1-1.6,5.208A5.759,5.759,0,0,1,287.479,79.93Zm.021-.714a3.28,3.28,0,0,0,3.192-1.827,10.285,10.285,0,0,0,.924-4.62,10.381,10.381,0,0,0-.9-4.7,3.784,3.784,0,0,0-6.426,0,10.381,10.381,0,0,0-.9,4.7,10.285,10.285,0,0,0,.924,4.62A3.28,3.28,0,0,0,287.5,79.216Zm8.757-7.9a1.4,1.4,0,0,0-.483-.693,1.791,1.791,0,0,0-.924-.168V69.85h4.368v.609h-.84q-.4,0-.4.357a.856.856,0,0,0,.063.294l2.394,6.573h.063l2.373-6.594a1.149,1.149,0,0,0,.042-.252q0-.378-.357-.378h-.924V69.85h3.528v.609a1.738,1.738,0,0,0-.945.189,1.389,1.389,0,0,0-.483.672l-3.318,8.358h-1.008Zm17.832,3.528h-6.678a6.5,6.5,0,0,0,.693,3.087,2.506,2.506,0,0,0,2.352,1.134,2.816,2.816,0,0,0,1.932-.63,3.7,3.7,0,0,0,1.05-1.617l.588.252a4.558,4.558,0,0,1-1.365,2.058,5.1,5.1,0,0,1-6.111-.525,5.668,5.668,0,0,1-1.092-3.738,5.888,5.888,0,0,1,1.134-3.864,4.063,4.063,0,0,1,3.339-1.386q4.158,0,4.158,5.04Zm-1.953-.672a6.77,6.77,0,0,0-.483-2.94,1.739,1.739,0,0,0-1.7-.966,2.025,2.025,0,0,0-1.848.987,6.068,6.068,0,0,0-.693,2.919Zm9.447-4.578a1.478,1.478,0,0,1,1.155.441,1.694,1.694,0,0,1,.42,1.218,1.509,1.509,0,0,1-.294.987,1.1,1.1,0,0,1-.9.357,1.158,1.158,0,0,1-.819-.273.966.966,0,0,1-.273-.714.935.935,0,0,1,.084-.42,1.687,1.687,0,0,1,.252-.357.535.535,0,0,0,.168-.294q0-.189-.273-.189a1.366,1.366,0,0,0-.861.4,3.525,3.525,0,0,0-.777,1.092,4.254,4.254,0,0,0-.42,1.47v4.62a2.519,2.519,0,0,0,.084.777.611.611,0,0,0,.42.294,6.226,6.226,0,0,0,1.071.063v.609h-4.809v-.609a4.028,4.028,0,0,0,.987-.084.464.464,0,0,0,.357-.294,2.306,2.306,0,0,0,.084-.756V71.677a1.331,1.331,0,0,0-.126-.714.54.54,0,0,0-.483-.189h-.714v-.63l2.478-.42h.588V71.7H319a6.412,6.412,0,0,1,1.05-1.491A2.035,2.035,0,0,1,321.583,69.6Zm11.839,10.311a5.874,5.874,0,0,1-2.982-.693,2.129,2.129,0,0,1-1.176-1.911A1.414,1.414,0,0,1,329.6,76.3a1.214,1.214,0,0,1,.924-.378,1.05,1.05,0,0,1,.777.294,1.065,1.065,0,0,1,.315.819.968.968,0,0,1-.063.378,1.254,1.254,0,0,1-.147.315.729.729,0,0,0-.147.42.908.908,0,0,0,.525.777,2.792,2.792,0,0,0,1.407.315,2.713,2.713,0,0,0,2.205-.9,3.847,3.847,0,0,0,.777-2.583q0-3.276-3.045-3.276l-.924.042v-.84q.588.042.924.042a2.179,2.179,0,0,0,1.827-.777,3.087,3.087,0,0,0,.63-1.974A3.054,3.054,0,0,0,335,67.036a1.981,1.981,0,0,0-1.68-.777,2.5,2.5,0,0,0-1.239.294.853.853,0,0,0-.525.735,1.032,1.032,0,0,0,.168.441,1.291,1.291,0,0,1,.21.693,1.039,1.039,0,0,1-.315.8,1.127,1.127,0,0,1-.8.273,1.22,1.22,0,0,1-.9-.336,1.308,1.308,0,0,1-.336-.966,2.125,2.125,0,0,1,1.2-1.911,5.649,5.649,0,0,1,2.877-.693,4.733,4.733,0,0,1,2.877.819,2.853,2.853,0,0,1,1.113,2.457,2.947,2.947,0,0,1-.672,2.058,3.433,3.433,0,0,1-2.037,1.05v.063a3.473,3.473,0,0,1,1.6.483,3.206,3.206,0,0,1,1.26,1.26,3.98,3.98,0,0,1,.483,2.016,3.733,3.733,0,0,1-1.3,3.024A5.351,5.351,0,0,1,333.422,79.909Zm7.1,1.47a2.215,2.215,0,0,0,.945-.462.936.936,0,0,0,.378-.777.4.4,0,0,0-.357-.42A1.2,1.2,0,0,1,340.8,77.7a1.211,1.211,0,0,1,.861-.336,1.1,1.1,0,0,1,.882.4,1.819,1.819,0,0,1,.357,1.239,3.2,3.2,0,0,1-.567,1.869,2.451,2.451,0,0,1-1.722,1.05Zm8.716-1.47a3.949,3.949,0,0,1-3.591-2,10.006,10.006,0,0,1-1.2-5.166,9.89,9.89,0,0,1,1.2-5.145,4.206,4.206,0,0,1,7.182,0,9.753,9.753,0,0,1,1.218,5.145,9.867,9.867,0,0,1-1.218,5.166A3.949,3.949,0,0,1,349.243,79.909Zm0-.672a2.062,2.062,0,0,0,1.638-.672,4.135,4.135,0,0,0,.819-2.058,22.255,22.255,0,0,0,.252-3.759,21.867,21.867,0,0,0-.252-3.738,4.164,4.164,0,0,0-.819-2.079,2.282,2.282,0,0,0-3.276,0,4.293,4.293,0,0,0-.84,2.079,23.82,23.82,0,0,0-.231,3.738,24.523,24.523,0,0,0,.231,3.822,4.258,4.258,0,0,0,.819,2.037A2.158,2.158,0,0,0,349.243,79.237Zm11.433.672a3.949,3.949,0,0,1-3.591-2,10.006,10.006,0,0,1-1.2-5.166,9.89,9.89,0,0,1,1.2-5.145,4.206,4.206,0,0,1,7.182,0,9.753,9.753,0,0,1,1.218,5.145,9.867,9.867,0,0,1-1.218,5.166A3.949,3.949,0,0,1,360.676,79.909Zm0-.672a2.062,2.062,0,0,0,1.638-.672,4.135,4.135,0,0,0,.819-2.058,22.255,22.255,0,0,0,.252-3.759,21.867,21.867,0,0,0-.252-3.738,4.164,4.164,0,0,0-.819-2.079,2.282,2.282,0,0,0-3.276,0,4.293,4.293,0,0,0-.84,2.079,23.82,23.82,0,0,0-.231,3.738,24.523,24.523,0,0,0,.231,3.822,4.258,4.258,0,0,0,.819,2.037A2.158,2.158,0,0,0,360.676,79.237Zm11.433.672a3.949,3.949,0,0,1-3.591-2,10.006,10.006,0,0,1-1.2-5.166,9.89,9.89,0,0,1,1.2-5.145,4.206,4.206,0,0,1,7.182,0,9.753,9.753,0,0,1,1.218,5.145,9.867,9.867,0,0,1-1.218,5.166A3.949,3.949,0,0,1,372.109,79.909Zm0-.672a2.062,2.062,0,0,0,1.638-.672,4.135,4.135,0,0,0,.819-2.058,22.255,22.255,0,0,0,.252-3.759,21.867,21.867,0,0,0-.252-3.738,4.164,4.164,0,0,0-.819-2.079,2.282,2.282,0,0,0-3.276,0,4.293,4.293,0,0,0-.84,2.079,23.82,23.82,0,0,0-.231,3.738,24.523,24.523,0,0,0,.231,3.822,4.258,4.258,0,0,0,.819,2.037A2.158,2.158,0,0,0,372.109,79.237Zm11.851.606a1.593,1.593,0,0,1-1.05-.36,1.527,1.527,0,0,1-.42-1.215v-5.13h-1.1v-.45q1.56-.165,1.935-2.31h.435v2.28h1.665v.48h-1.665v4.905a1.649,1.649,0,0,0,.18.885.674.674,0,0,0,.57.255,1.3,1.3,0,0,0,.5-.105,2.5,2.5,0,0,0,.435-.255l.165.36a5.15,5.15,0,0,1-.8.495A1.915,1.915,0,0,1,383.96,79.843Zm8.711-3.615H387.9a4.641,4.641,0,0,0,.5,2.205,1.79,1.79,0,0,0,1.68.81,2.011,2.011,0,0,0,1.38-.45,2.64,2.64,0,0,0,.75-1.155l.42.18a3.256,3.256,0,0,1-.975,1.47,3.644,3.644,0,0,1-4.365-.375,4.049,4.049,0,0,1-.78-2.67,4.205,4.205,0,0,1,.81-2.76,2.9,2.9,0,0,1,2.385-.99q2.97,0,2.97,3.6Zm-1.395-.48a4.835,4.835,0,0,0-.345-2.1,1.242,1.242,0,0,0-1.215-.69,1.446,1.446,0,0,0-1.32.7,4.335,4.335,0,0,0-.5,2.085Zm5.488,4.095a3,3,0,0,1-.72-.075,5.012,5.012,0,0,1-.585-.2,1.6,1.6,0,0,0-.525-.135.363.363,0,0,0-.24.075.631.631,0,0,0-.15.21h-.285l-.15-2.475h.3a3.275,3.275,0,0,0,.87,1.59,2.018,2.018,0,0,0,1.395.525,1.623,1.623,0,0,0,1.05-.315,1.115,1.115,0,0,0,.405-.915,1.041,1.041,0,0,0-.225-.69,1.668,1.668,0,0,0-.54-.45,9.863,9.863,0,0,0-.93-.405l-.375-.135a4.526,4.526,0,0,1-1.35-.78,1.54,1.54,0,0,1-.42-1.14,1.815,1.815,0,0,1,.66-1.485,2.7,2.7,0,0,1,1.77-.555,3.085,3.085,0,0,1,.585.045,4.926,4.926,0,0,1,.51.135,1.829,1.829,0,0,0,.39.09.293.293,0,0,0,.21-.06.371.371,0,0,0,.075-.135.263.263,0,0,0,.03-.075h.27l.105,2.2h-.3q-.4-1.74-1.8-1.74a1.667,1.667,0,0,0-1.02.3.939.939,0,0,0-.39.78,1.038,1.038,0,0,0,.375.81,3.19,3.19,0,0,0,.93.51l.4.135a4.8,4.8,0,0,1,1.65.87,1.657,1.657,0,0,1,.54,1.305,1.968,1.968,0,0,1-.7,1.575A2.7,2.7,0,0,1,396.764,79.843Zm5.946,0a1.593,1.593,0,0,1-1.05-.36,1.527,1.527,0,0,1-.42-1.215v-5.13h-1.1v-.45q1.56-.165,1.935-2.31h.435v2.28h1.665v.48h-1.665v4.905a1.649,1.649,0,0,0,.18.885.674.674,0,0,0,.57.255,1.3,1.3,0,0,0,.5-.105,2.5,2.5,0,0,0,.435-.255l.165.36a5.15,5.15,0,0,1-.8.495A1.915,1.915,0,0,1,402.71,79.843Zm8.711-3.615h-4.77a4.641,4.641,0,0,0,.5,2.205,1.79,1.79,0,0,0,1.68.81,2.011,2.011,0,0,0,1.38-.45,2.64,2.64,0,0,0,.75-1.155l.42.18a3.256,3.256,0,0,1-.975,1.47,3.644,3.644,0,0,1-4.365-.375,4.049,4.049,0,0,1-.78-2.67,4.205,4.205,0,0,1,.81-2.76,2.9,2.9,0,0,1,2.385-.99q2.97,0,2.97,3.6Zm-1.395-.48a4.835,4.835,0,0,0-.345-2.1,1.242,1.242,0,0,0-1.215-.69,1.446,1.446,0,0,0-1.32.7,4.335,4.335,0,0,0-.5,2.085Zm10.018,3.495v.435h-2.1l-.105-.72a5,5,0,0,1-1.02.645,2.96,2.96,0,0,1-1.275.255,2.4,2.4,0,0,1-2.025-.915,4.355,4.355,0,0,1-.69-2.655,4.173,4.173,0,0,1,.84-2.865,2.992,2.992,0,0,1,2.34-.93,2.789,2.789,0,0,1,1.74.585v-.06h.045v-2.28a1.084,1.084,0,0,0-.09-.54.4.4,0,0,0-.36-.135h-.54v-.435l1.845-.33h.4v9.24a.962.962,0,0,0,.12.57.672.672,0,0,0,.48.135Zm-5.805-3.135q0,3.12,1.83,3.12a1.739,1.739,0,0,0,.885-.225,5.09,5.09,0,0,0,.84-.63v-4.65a2.212,2.212,0,0,0-1.62-.765,1.632,1.632,0,0,0-1.455.75A4.593,4.593,0,0,0,414.239,76.108ZM286.185,97.438a2.87,2.87,0,0,1-.585.285,2.408,2.408,0,0,1-.78.105,1.135,1.135,0,0,1-.69-.18,1.1,1.1,0,0,1-.27-.78,5.05,5.05,0,0,1-1.08.735,2.782,2.782,0,0,1-1.17.24,2.268,2.268,0,0,1-1.35-.375,1.331,1.331,0,0,1-.51-1.125,2.245,2.245,0,0,1,1.065-1.83,7.02,7.02,0,0,1,3.045-1.095v-.87a1.743,1.743,0,0,0-.315-1.14,1.275,1.275,0,0,0-1.05-.375,2.218,2.218,0,0,0-.945.195q-.42.2-.42.39a.325.325,0,0,0,.135.225.8.8,0,0,1,.225.225.5.5,0,0,1,.09.33.722.722,0,0,1-.18.51.69.69,0,0,1-.51.18.75.75,0,0,1-.555-.21.827.827,0,0,1-.195-.585,1.434,1.434,0,0,1,.3-.87,2.224,2.224,0,0,1,.93-.66,4.081,4.081,0,0,1,1.53-.255,2.534,2.534,0,0,1,1.68.465,2.051,2.051,0,0,1,.54,1.62v3.555a1.9,1.9,0,0,0,.12.81.464.464,0,0,0,.42.21,1.074,1.074,0,0,0,.42-.105ZM281.1,95.983a1.015,1.015,0,0,0,.3.8,1.309,1.309,0,0,0,.87.255,1.814,1.814,0,0,0,.8-.18,4.545,4.545,0,0,0,.8-.48V93.9a5.511,5.511,0,0,0-2.085.81A1.516,1.516,0,0,0,281.1,95.983Zm12.529.45a1.732,1.732,0,0,0,.06.54.376.376,0,0,0,.27.21,2.877,2.877,0,0,0,.7.06v.435h-3.285v-.435a3.437,3.437,0,0,0,.675-.045.369.369,0,0,0,.255-.21,1.582,1.582,0,0,0,.06-.525V92.818a1.806,1.806,0,0,0-.345-1.155,1.215,1.215,0,0,0-1.05-.45,1.677,1.677,0,0,0-.99.285,3.2,3.2,0,0,0-.78.78v4.185a1.732,1.732,0,0,0,.06.54.331.331,0,0,0,.255.195,3.327,3.327,0,0,0,.66.045v.435h-3.285v-.435a2.877,2.877,0,0,0,.7-.06.332.332,0,0,0,.255-.21,1.647,1.647,0,0,0,.06-.54v-4.47a.951.951,0,0,0-.09-.51.386.386,0,0,0-.345-.135h-.51v-.45l1.77-.3h.42v1.11h.015a3.421,3.421,0,0,1,1.1-.885,2.884,2.884,0,0,1,1.335-.3q2.025,0,2.025,2.16Zm9.141.81v.435h-2.1l-.105-.72a5,5,0,0,1-1.02.645,2.96,2.96,0,0,1-1.275.255,2.4,2.4,0,0,1-2.025-.915,4.355,4.355,0,0,1-.69-2.655,4.173,4.173,0,0,1,.84-2.865,2.992,2.992,0,0,1,2.34-.93,2.789,2.789,0,0,1,1.74.585v-.06h.045v-2.28a1.084,1.084,0,0,0-.09-.54.4.4,0,0,0-.36-.135h-.54v-.435l1.845-.33h.4v9.24a.962.962,0,0,0,.12.57.672.672,0,0,0,.48.135Zm-5.805-3.135q0,3.12,1.83,3.12A1.739,1.739,0,0,0,299.68,97a5.09,5.09,0,0,0,.84-.63v-4.65a2.212,2.212,0,0,0-1.62-.765,1.632,1.632,0,0,0-1.455.75A4.593,4.593,0,0,0,296.965,94.108Zm14.686-3.615a2.429,2.429,0,0,1,2.04.885,4.217,4.217,0,0,1,.69,2.625,4.32,4.32,0,0,1-.84,2.91,2.95,2.95,0,0,1-2.325.945,2.5,2.5,0,0,1-.99-.18,3.062,3.062,0,0,1-.8-.465v2.221a1.582,1.582,0,0,0,.06.525.424.424,0,0,0,.3.225,3.262,3.262,0,0,0,.75.06v.435h-3.4v-.435a2.768,2.768,0,0,0,.7-.06.3.3,0,0,0,.255-.21,1.647,1.647,0,0,0,.06-.54V91.9a.769.769,0,0,0-.105-.48q-.09-.12-.4-.12h-.45v-.435l1.785-.3h.405V91.3a3.694,3.694,0,0,1,.96-.57A3.338,3.338,0,0,1,311.651,90.493Zm-.6,6.885q1.935,0,1.935-3.18a4.694,4.694,0,0,0-.45-2.28,1.477,1.477,0,0,0-1.38-.81,2.623,2.623,0,0,0-1.725.75v4.755A2.149,2.149,0,0,0,311.051,97.378Zm8.722-6.9a1.056,1.056,0,0,1,.825.315,1.21,1.21,0,0,1,.3.87,1.078,1.078,0,0,1-.21.7.787.787,0,0,1-.645.255.827.827,0,0,1-.585-.2.69.69,0,0,1-.2-.51.668.668,0,0,1,.06-.3,1.205,1.205,0,0,1,.18-.255.382.382,0,0,0,.12-.21q0-.135-.195-.135a.976.976,0,0,0-.615.285,2.518,2.518,0,0,0-.555.78,3.038,3.038,0,0,0-.3,1.05v3.3a1.8,1.8,0,0,0,.06.555.436.436,0,0,0,.3.21,4.447,4.447,0,0,0,.765.045v.435h-3.435v-.435a2.877,2.877,0,0,0,.7-.06.332.332,0,0,0,.255-.21,1.647,1.647,0,0,0,.06-.54v-4.47a.951.951,0,0,0-.09-.51.386.386,0,0,0-.345-.135h-.51v-.45l1.77-.3h.42v1.41h.015a4.58,4.58,0,0,1,.75-1.065A1.454,1.454,0,0,1,319.773,90.478Zm4.906,7.365q-3.255,0-3.255-3.675a4.071,4.071,0,0,1,.81-2.745,3.063,3.063,0,0,1,2.46-.945q3.255,0,3.255,3.675T324.679,97.843Zm.015-.48q1.86,0,1.86-3.135,0-3.27-1.875-3.27a1.505,1.505,0,0,0-1.395.825,4.885,4.885,0,0,0-.465,2.385Q322.819,97.363,324.694,97.363Zm4.924-5.655a1,1,0,0,0-.345-.5,1.279,1.279,0,0,0-.66-.12v-.435h3.12v.435h-.6q-.285,0-.285.255a.611.611,0,0,0,.045.21l1.71,4.695h.045l1.695-4.71a.821.821,0,0,0,.03-.18q0-.27-.255-.27h-.66v-.435h2.52v.435a1.241,1.241,0,0,0-.675.135.992.992,0,0,0-.345.48l-2.37,5.97h-.72Zm12.737,2.52h-4.77a4.641,4.641,0,0,0,.5,2.205,1.79,1.79,0,0,0,1.68.81,2.011,2.011,0,0,0,1.38-.45,2.64,2.64,0,0,0,.75-1.155l.42.18a3.256,3.256,0,0,1-.975,1.47,3.644,3.644,0,0,1-4.365-.375,4.049,4.049,0,0,1-.78-2.67,4.205,4.205,0,0,1,.81-2.76,2.9,2.9,0,0,1,2.385-.99q2.97,0,2.97,3.6Zm-1.4-.48a4.835,4.835,0,0,0-.345-2.1,1.242,1.242,0,0,0-1.215-.69,1.446,1.446,0,0,0-1.32.7,4.335,4.335,0,0,0-.5,2.085Zm9.358,2.685a1.732,1.732,0,0,0,.06.54.376.376,0,0,0,.27.21,2.877,2.877,0,0,0,.7.06v.435h-3.285v-.435a3.437,3.437,0,0,0,.675-.045.369.369,0,0,0,.255-.21,1.582,1.582,0,0,0,.06-.525V92.818a1.806,1.806,0,0,0-.345-1.155,1.215,1.215,0,0,0-1.05-.45,1.677,1.677,0,0,0-.99.285,3.2,3.2,0,0,0-.78.78v4.185a1.732,1.732,0,0,0,.06.54.331.331,0,0,0,.255.195,3.327,3.327,0,0,0,.66.045v.435h-3.285v-.435a2.877,2.877,0,0,0,.7-.06.332.332,0,0,0,.255-.21,1.647,1.647,0,0,0,.06-.54v-4.47a.951.951,0,0,0-.09-.51.386.386,0,0,0-.345-.135h-.51v-.45l1.77-.3h.42v1.11h.015a3.421,3.421,0,0,1,1.1-.885,2.884,2.884,0,0,1,1.335-.3q2.025,0,2.025,2.16Zm9.783-5.955a1.056,1.056,0,0,1,.825.315,1.21,1.21,0,0,1,.3.87,1.078,1.078,0,0,1-.21.7.787.787,0,0,1-.645.255.827.827,0,0,1-.585-.2.69.69,0,0,1-.195-.51.668.668,0,0,1,.06-.3,1.205,1.205,0,0,1,.18-.255.382.382,0,0,0,.12-.21q0-.135-.2-.135a.976.976,0,0,0-.615.285,2.518,2.518,0,0,0-.555.78,3.038,3.038,0,0,0-.3,1.05v3.3a1.8,1.8,0,0,0,.06.555.436.436,0,0,0,.3.21,4.447,4.447,0,0,0,.765.045v.435h-3.435v-.435a2.877,2.877,0,0,0,.7-.06.332.332,0,0,0,.255-.21,1.647,1.647,0,0,0,.06-.54v-4.47a.951.951,0,0,0-.09-.51.386.386,0,0,0-.345-.135h-.51v-.45l1.77-.3h.42v1.41h.015a4.58,4.58,0,0,1,.75-1.065A1.454,1.454,0,0,1,360.1,90.478Zm7.83,3.75h-4.77a4.641,4.641,0,0,0,.5,2.205,1.79,1.79,0,0,0,1.68.81,2.011,2.011,0,0,0,1.38-.45,2.64,2.64,0,0,0,.75-1.155l.42.18a3.256,3.256,0,0,1-.975,1.47,3.644,3.644,0,0,1-4.365-.375,4.049,4.049,0,0,1-.78-2.67,4.205,4.205,0,0,1,.81-2.76,2.9,2.9,0,0,1,2.385-.99q2.97,0,2.97,3.6Zm-1.395-.48a4.835,4.835,0,0,0-.345-2.1,1.242,1.242,0,0,0-1.215-.69,1.446,1.446,0,0,0-1.32.7,4.335,4.335,0,0,0-.5,2.085Zm6.073,4.095a3.037,3.037,0,0,1-2.415-.96,3.932,3.932,0,0,1-.84-2.655,4.113,4.113,0,0,1,.84-2.7,3.1,3.1,0,0,1,2.535-1.035,3.379,3.379,0,0,1,1.8.435,1.346,1.346,0,0,1,.7,1.2.907.907,0,0,1-.195.615.713.713,0,0,1-.57.225.772.772,0,0,1-.57-.2.762.762,0,0,1-.195-.54.862.862,0,0,1,.045-.3,1.555,1.555,0,0,1,.165-.255.476.476,0,0,0,.105-.255q0-.195-.315-.33a2.195,2.195,0,0,0-2.37.57,3.877,3.877,0,0,0-.57,2.4q0,3.18,2.16,3.18a2.082,2.082,0,0,0,2.04-1.335l.36.21a2.663,2.663,0,0,1-.825,1.17A2.788,2.788,0,0,1,372.609,97.843Zm5.406-8.595a.843.843,0,0,1-.6-.225.824.824,0,0,1-.225-.585.843.843,0,0,1,.225-.6.814.814,0,0,1,.6-.24.783.783,0,0,1,.6.24.843.843,0,0,1,.225.6.795.795,0,0,1-.825.81Zm-1.62,7.995a2.877,2.877,0,0,0,.705-.06.332.332,0,0,0,.255-.21,1.647,1.647,0,0,0,.06-.54v-4.47a.951.951,0,0,0-.09-.51q-.075-.135-.345-.135h-.51v-.45l1.815-.3h.42v5.865a1.8,1.8,0,0,0,.06.555.369.369,0,0,0,.255.21,3.808,3.808,0,0,0,.705.045v.435H376.4Zm8.909-6.75a2.429,2.429,0,0,1,2.04.885,4.217,4.217,0,0,1,.69,2.625,4.32,4.32,0,0,1-.84,2.91,2.95,2.95,0,0,1-2.325.945,2.5,2.5,0,0,1-.99-.18,3.062,3.062,0,0,1-.8-.465v2.221a1.582,1.582,0,0,0,.06.525.424.424,0,0,0,.3.225,3.262,3.262,0,0,0,.75.06v.435h-3.405v-.435a2.768,2.768,0,0,0,.705-.06.3.3,0,0,0,.255-.21,1.647,1.647,0,0,0,.06-.54V91.9a.769.769,0,0,0-.105-.48q-.09-.12-.405-.12h-.45v-.435l1.785-.3h.4V91.3a3.694,3.694,0,0,1,.96-.57A3.338,3.338,0,0,1,385.3,90.493Zm-.6,6.885q1.935,0,1.935-3.18a4.694,4.694,0,0,0-.45-2.28,1.477,1.477,0,0,0-1.38-.81,2.623,2.623,0,0,0-1.725.75v4.755A2.149,2.149,0,0,0,384.7,97.378Zm10.957-3.15h-4.77a4.641,4.641,0,0,0,.5,2.205,1.79,1.79,0,0,0,1.68.81,2.011,2.011,0,0,0,1.38-.45,2.64,2.64,0,0,0,.75-1.155l.42.18a3.256,3.256,0,0,1-.975,1.47,3.644,3.644,0,0,1-4.365-.375,4.049,4.049,0,0,1-.78-2.67,4.205,4.205,0,0,1,.81-2.76,2.9,2.9,0,0,1,2.385-.99q2.97,0,2.97,3.6Zm-1.395-.48a4.835,4.835,0,0,0-.345-2.1,1.242,1.242,0,0,0-1.215-.69,1.446,1.446,0,0,0-1.32.7,4.335,4.335,0,0,0-.5,2.085Zm5.488,4.095a3,3,0,0,1-.72-.075,5.012,5.012,0,0,1-.585-.2,1.6,1.6,0,0,0-.525-.135.363.363,0,0,0-.24.075.631.631,0,0,0-.15.21h-.285l-.15-2.475h.3a3.275,3.275,0,0,0,.87,1.59,2.018,2.018,0,0,0,1.395.525,1.623,1.623,0,0,0,1.05-.315,1.115,1.115,0,0,0,.405-.915,1.041,1.041,0,0,0-.225-.69,1.668,1.668,0,0,0-.54-.45,9.863,9.863,0,0,0-.93-.405l-.375-.135a4.526,4.526,0,0,1-1.35-.78,1.54,1.54,0,0,1-.42-1.14,1.815,1.815,0,0,1,.66-1.485,2.7,2.7,0,0,1,1.77-.555,3.085,3.085,0,0,1,.585.045,4.926,4.926,0,0,1,.51.135,1.829,1.829,0,0,0,.39.09.293.293,0,0,0,.21-.06.371.371,0,0,0,.075-.135.263.263,0,0,0,.03-.075h.27l.105,2.2h-.3q-.4-1.74-1.8-1.74a1.667,1.667,0,0,0-1.02.3.939.939,0,0,0-.39.78,1.038,1.038,0,0,0,.375.81,3.19,3.19,0,0,0,.93.51l.405.135a4.8,4.8,0,0,1,1.65.87,1.657,1.657,0,0,1,.54,1.305,1.968,1.968,0,0,1-.7,1.575A2.7,2.7,0,0,1,399.754,97.843Z" class="homepage-eat-b"/>
                        <path d="M0 108.679H151V109.679H0zM0 112.679H151V113.679H0zM276 108.679H427V109.679H276zM276 112.679H427V113.679H276z" class="homepage-eat-c"/>
                        <g style="clip-path:url(#homepage-eat-a)">
                            <path d="M59.03 47.538a4.49 4.49 0 0 0 .841-.428.435.435 0 0 0 .2-.387 3.5 3.5 0 0 0-.237-.717l-3.67-8.14a1.933 1.933 0 0 0-.38-.638.546.546 0 0 0-.451-.13 3.812 3.812 0 0 0-.893.276l-.217-.5 4.058-1.68.217.487a4.151 4.151 0 0 0-.858.444.493.493 0 0 0-.217.4 2.283 2.283 0 0 0 .22.7l3.471 7.714a2.21 2.21 0 0 0 .559.834.845.845 0 0 0 .708.141 7.281 7.281 0 0 0 1.307-.436 4.982 4.982 0 0 0 1.412-.807 1.543 1.543 0 0 0 .511-1.005A5.03 5.03 0 0 0 65.456 42l.429-.176 1.127 2.955L59.214 48ZM74.432 37.428l-5.271 2.008a6.036 6.036 0 0 0 1.6 2.3 2.142 2.142 0 0 0 2.232.222 2.218 2.218 0 0 0 1.311-1.1 3.229 3.229 0 0 0 .292-1.63l.545.021a3.886 3.886 0 0 1-.38 2.092 3.357 3.357 0 0 1-1.914 1.459 3.5 3.5 0 0 1-3.078-.054 5.255 5.255 0 0 1-2.132-2.708 5.213 5.213 0 0 1-.414-3.489 3.3 3.3 0 0 1 2.175-2.123q3.272-1.253 4.987 2.858Zm-1.779.031A6.641 6.641 0 0 0 71.282 35.2a1.5 1.5 0 0 0-1.671-.262 1.623 1.623 0 0 0-1.13 1.354 5.408 5.408 0 0 0 .446 2.6ZM80.47 39.9a6.246 6.246 0 0 1-.753.013 1.81 1.81 0 0 0-.64.057.394.394 0 0 0-.237.173.782.782 0 0 0-.075.308l-.319.113-1.251-2.785.334-.113A4.227 4.227 0 0 0 79.19 39.14a2.429 2.429 0 0 0 1.8.061 1.836 1.836 0 0 0 1.044-.785 1.35 1.35 0 0 0 .043-1.2 1.366 1.366 0 0 0-.558-.711 2.157 2.157 0 0 0-.79-.293c-.289-.041-.691-.08-1.22-.1l-.481-.007a5.211 5.211 0 0 1-1.85-.382 2 2 0 0 1-.982-1.134 2.179 2.179 0 0 1 .093-1.979 3.021 3.021 0 0 1 1.724-1.318 4.265 4.265 0 0 1 .67-.18c.176-.019.384-.038.625-.042a1.518 1.518 0 0 0 .479-.054.318.318 0 0 0 .206-.157.373.373 0 0 0 .029-.184l0-.092.3-.113 1.086 2.481-.335.113c-.807-1.228-1.744-1.657-2.78-1.3a1.845 1.845 0 0 0-1 .738 1.123 1.123 0 0 0-.093 1.06 1.264 1.264 0 0 0 .783.769 3.717 3.717 0 0 0 1.254.239l.513-.009a5.992 5.992 0 0 1 2.234.345 2.22 2.22 0 0 1 1.177 1.3 2.421 2.421 0 0 1-.091 2.087 3.016 3.016 0 0 1-1.755 1.4A3.093 3.093 0 0 1 80.47 39.9ZM88.469 37.17a6.126 6.126 0 0 1-.754 0 1.568 1.568 0 0 0-.64.042.453.453 0 0 0-.238.157.633.633 0 0 0-.09.308l-.319.1L85.24 34.957l.335-.114A4.21 4.21 0 0 0 87.2 36.364a2.425 2.425 0 0 0 1.8.107 1.842 1.842 0 0 0 1.06-.77 1.393 1.393 0 0 0 .075-1.2 1.455 1.455 0 0 0-.542-.727 1.854 1.854 0 0 0-.791-.308 10.342 10.342 0 0 0-1.22-.132l-.482-.023a5.026 5.026 0 0 1-1.835-.428 1.924 1.924 0 0 1-.95-1.164 2.232 2.232 0 0 1 .142-1.981 3.114 3.114 0 0 1 1.756-1.288 4.184 4.184 0 0 1 .67-.165 4.106 4.106 0 0 1 .625-.026 2.627 2.627 0 0 0 .48-.039.317.317 0 0 0 .206-.156.4.4 0 0 0 .045-.185l0-.092.3-.1 1.022 2.527-.334.113c-.776-1.244-1.7-1.7-2.749-1.363a1.836 1.836 0 0 0-1.013.723 1.1 1.1 0 0 0-.126 1.045 1.263 1.263 0 0 0 .767.784 3.558 3.558 0 0 0 1.255.27l.513.006a5.764 5.764 0 0 1 2.219.407 2.09 2.09 0 0 1 1.13 1.314 2.416 2.416 0 0 1-.14 2.088A3.044 3.044 0 0 1 89.3 36.972 2.367 2.367 0 0 1 88.469 37.17ZM101.255 33.223a6.49 6.49 0 0 1-.754-.033 2.188 2.188 0 0 0-.641.011.382.382 0 0 0-.238.158.633.633 0 0 0-.09.308l-.319.1L98.136 30.9l.335-.1a4.138 4.138 0 0 0 1.567 1.567 2.332 2.332 0 0 0 1.782.169 1.927 1.927 0 0 0 1.093-.724 1.34 1.34 0 0 0 .123-1.2 1.3 1.3 0 0 0-.51-.742 2.152 2.152 0 0 0-.775-.339c-.274-.057-.675-.112-1.206-.179l-.481-.038a5 5 0 0 1-1.82-.49 1.91 1.91 0 0 1-.9-1.2 2.195 2.195 0 0 1 .206-1.967 3.09 3.09 0 0 1 1.805-1.227 2.7 2.7 0 0 1 .687-.135 4.18 4.18 0 0 1 .625-.01 1.934 1.934 0 0 0 .481-.024.349.349 0 0 0 .222-.142.394.394 0 0 0 .045-.185l0-.092.3-.081.927 2.56-.335.1c-.728-1.275-1.634-1.765-2.687-1.456a1.933 1.933 0 0 0-1.046.678 1.1 1.1 0 0 0-.157 1.045 1.263 1.263 0 0 0 .735.815 3.546 3.546 0 0 0 1.24.3l.513.022a5.744 5.744 0 0 1 2.2.483 2.162 2.162 0 0 1 1.082 1.361 2.389 2.389 0 0 1-.22 2.074 3.107 3.107 0 0 1-1.853 1.3A2.972 2.972 0 0 1 101.255 33.223ZM108.172 30.927a1.918 1.918 0 0 1-.906-1.3l-1.757-6.057-1.261.329-.153-.535c1.146-.449 1.623-1.561 1.416-3.321l.494-.131.785 2.7 1.915-.509.169.565-1.9.508 1.689 5.8a1.979 1.979 0 0 0 .515.972.776.776 0 0 0 .739.141 1.355 1.355 0 0 0 .524-.285 3.35 3.35 0 0 0 .41-.422l.311.378a5.822 5.822 0 0 1-.739.826 2.223 2.223 0 0 1-.938.461A1.925 1.925 0 0 1 108.172 30.927ZM116.256 20.36a1.593 1.593 0 0 1 .61.94 1.268 1.268 0 0 1-.017.89.893.893 0 0 1-.664.487.938.938 0 0 1-.723-.065.9.9 0 0 1-.4-.545.737.737 0 0 1-.022-.368 1.167 1.167 0 0 1 .122-.354.475.475 0 0 0 .075-.278c-.034-.106-.114-.136-.274-.1a.983.983 0 0 0-.6.516 2.894 2.894 0 0 0-.4 1.08 4.236 4.236 0 0 0-.008 1.35l1.063 3.922a2.052 2.052 0 0 0 .252.625.485.485 0 0 0 .4.162 4.951 4.951 0 0 0 .895-.154l.138.519-3.959.988-.136-.519a3.28 3.28 0 0 0 .8-.274.434.434 0 0 0 .234-.326 2.076 2.076 0 0 0-.107-.658l-1.44-5.311a1.385 1.385 0 0 0-.267-.593.443.443 0 0 0-.434-.054l-.591.148-.137-.534 1.94-.862.479-.115.446 1.679h.016a5.411 5.411 0 0 1 .519-1.481 1.641 1.641 0 0 1 1.124-.832A1.243 1.243 0 0 1 116.256 20.36Z" class="homepage-eat-b"/>
                            <path d="M126.183,22.412l-5.525,1.261a5.8,5.8,0,0,0,1.23,2.493,2.151,2.151,0,0,0,2.174.53,2.245,2.245,0,0,0,1.459-.9,3.372,3.372,0,0,0,.533-1.573l.531.1a3.871,3.871,0,0,1-.7,2.005,3.442,3.442,0,0,1-2.111,1.187,3.5,3.5,0,0,1-3.038-.485,5.144,5.144,0,0,1-1.7-2.976,5.283,5.283,0,0,1,.114-3.513,3.348,3.348,0,0,1,2.469-1.806c2.283-.515,3.8.655,4.5,3.51Zm-1.767-.215a6.344,6.344,0,0,0-1.021-2.42,1.505,1.505,0,0,0-1.612-.494,1.652,1.652,0,0,0-1.326,1.173,5.463,5.463,0,0,0,.047,2.621Z" style="fill:#278282"/>
                            <path d="M131.77 25.689a4.272 4.272 0 0 1-.739-.094 1.667 1.667 0 0 0-.641-.035.354.354 0 0 0-.255.142.86.86 0 0 0-.122.294l-.336.067-.838-2.945.352-.068a4.119 4.119 0 0 0 1.441 1.693 2.372 2.372 0 0 0 1.769.307 1.887 1.887 0 0 0 1.142-.633 1.356 1.356 0 0 0 .22-1.185 1.372 1.372 0 0 0-.447-.789 2.338 2.338 0 0 0-.744-.4 11.534 11.534 0 0 0-1.192-.27L130.9 21.7a5.1 5.1 0 0 1-1.775-.628 1.886 1.886 0 0 1-.791-1.26 2.226 2.226 0 0 1 .382-1.954 3.066 3.066 0 0 1 1.905-1.075 4.457 4.457 0 0 1 .687-.089 4.947 4.947 0 0 1 .625.036 1.656 1.656 0 0 0 .483.037.282.282 0 0 0 .221-.126.444.444 0 0 0 .062-.17c0-.046.014-.077 0-.092l.32-.067.7 2.625-.351.068c-.616-1.324-1.475-1.876-2.561-1.658a1.815 1.815 0 0 0-1.1.6 1.158 1.158 0 0 0-.255 1.031 1.312 1.312 0 0 0 .658.878 4.057 4.057 0 0 0 1.208.409l.515.068a5.961 5.961 0 0 1 2.16.652 2.152 2.152 0 0 1 .971 1.44 2.427 2.427 0 0 1-.4 2.062 3.12 3.12 0 0 1-1.951 1.153A8.351 8.351 0 0 1 131.77 25.689ZM140.108 24.058a4.348 4.348 0 0 1-.739-.11 1.743 1.743 0 0 0-.642-.05.4.4 0 0 0-.254.127 1.291 1.291 0 0 0-.139.294l-.335.067-.774-2.946.352-.067A4.046 4.046 0 0 0 138.97 23.1a2.344 2.344 0 0 0 1.752.337 1.877 1.877 0 0 0 1.16-.618 1.4 1.4 0 0 0 .251-1.185 1.348 1.348 0 0 0-.43-.79 2.1 2.1 0 0 0-.745-.416 10.489 10.489 0 0 0-1.175-.287l-.466-.083a5.284 5.284 0 0 1-1.759-.66 1.9 1.9 0 0 1-.776-1.275 2.188 2.188 0 0 1 .431-1.939 3.1 3.1 0 0 1 1.92-1.03 4.389 4.389 0 0 1 .689-.073 5.491 5.491 0 0 1 .626.05 1.992 1.992 0 0 0 .482.022.282.282 0 0 0 .221-.126.444.444 0 0 0 .062-.17.266.266 0 0 0 .014-.092l.32-.052.655 2.627-.351.067c-.586-1.339-1.429-1.907-2.515-1.72a1.876 1.876 0 0 0-1.112.571 1.1 1.1 0 0 0-.271 1.032 1.221 1.221 0 0 0 .641.879 3.656 3.656 0 0 0 1.194.424l.5.083a5.791 5.791 0 0 1 2.145.7 2.185 2.185 0 0 1 .939 1.456 2.4 2.4 0 0 1-.445 2.047 3.088 3.088 0 0 1-1.968 1.107A3.375 3.375 0 0 1 140.108 24.058ZM162.028 19.953l.073.49-.879.122a6.264 6.264 0 0 1-1.779.046 3.335 3.335 0 0 1-1.323-.514 5.349 5.349 0 0 1-3.337 1.622 4.8 4.8 0 0 1-3.069-.392 2.72 2.72 0 0 1-1.4-2.061 2.866 2.866 0 0 1 .4-2.077 7.843 7.843 0 0 1 1.668-1.777 5.733 5.733 0 0 1-1.276-1.419 3.4 3.4 0 0 1-.487-1.326 2.878 2.878 0 0 1 .5-2.355 3.591 3.591 0 0 1 4.187-.747 2.115 2.115 0 0 1 1.037 1.608 2.414 2.414 0 0 1-.152 1.321 3.482 3.482 0 0 1-.75 1.117q-.472.492-1.325 1.219l4.393 3.681a4.411 4.411 0 0 0 .537-1.374 3.7 3.7 0 0 0 .055-1.381.886.886 0 0 0-.38-.637 2.025 2.025 0 0 0-1.235-.071l-.073-.459 3.487-.505.072.459a2.451 2.451 0 0 0-.782.213.826.826 0 0 0-.331.328 1.761 1.761 0 0 0-.1.523 9.891 9.891 0 0 1-.808 3.249A4.159 4.159 0 0 0 162.028 19.953Zm-9.018.34a3.514 3.514 0 0 0 2.3.374 4.475 4.475 0 0 0 2.227-.989l-4.62-3.8a3.726 3.726 0 0 0-.906 1.319 2.541 2.541 0 0 0-.136 1.383A2.267 2.267 0 0 0 153.01 20.293Zm-.911-9.86a1.978 1.978 0 0 0-.231 1.446 3.011 3.011 0 0 0 .5 1.2 7.868 7.868 0 0 0 1.258 1.327 5.944 5.944 0 0 0 1.335-1.526 2.365 2.365 0 0 0 .2-1.475 2.188 2.188 0 0 0-.649-1.369 1.544 1.544 0 0 0-1.239-.3A1.72 1.72 0 0 0 152.1 10.433ZM168.822 18.855l.688-.058c.48-.039.766-.152.892-.338A1.879 1.879 0 0 0 170.5 17.4L169.289 5.383a2.828 2.828 0 0 0-.208-.9.739.739 0 0 0-.5-.329 5.623 5.623 0 0 0-1.218-.009l-.076-.689 4.161-.394 5.99 11.551h.015l3.581-12.436L185 1.8l.077.7a5.551 5.551 0 0 0-1.2.235.674.674 0 0 0-.442.407 2.523 2.523 0 0 0-.033.92l1.205 11.94a2.43 2.43 0 0 0 .208.886.682.682 0 0 0 .519.328 5.032 5.032 0 0 0 1.2-.021l.077.7-5.778.544-.076-.7a5.435 5.435 0 0 0 1.247-.221.66.66 0 0 0 .441-.422 2.484 2.484 0 0 0 .016-.889L181.277 4.364h-.048l-3.908 13.776-.432.038L170.235 5.4h-.048l1.2 11.91a4.508 4.508 0 0 0 .144.856.492.492 0 0 0 .341.316 2.692 2.692 0 0 0 .835.016l.88-.076.077.7-4.754.45ZM190.134 15.727a9.632 9.632 0 0 1-2.126-5.975 9.676 9.676 0 0 1 1.447-6.173A6.313 6.313 0 0 1 194.714.973a6.435 6.435 0 0 1 5.55 2.036 9.707 9.707 0 0 1 2.125 5.974 9.57 9.57 0 0 1-1.446 6.158 6.471 6.471 0 0 1-5.276 2.576A6.382 6.382 0 0 1 190.134 15.727Zm8.971-1.167a12.078 12.078 0 0 0 .739-5.426 12.487 12.487 0 0 0-1.331-5.451A3.738 3.738 0 0 0 194.761 1.8a3.694 3.694 0 0 0-3.519 2.254 12.659 12.659 0 0 0-.719 5.548 12.257 12.257 0 0 0 1.344 5.328 4.131 4.131 0 0 0 7.238-.37ZM204.3 16.372a4.606 4.606 0 0 0 1.232-.144.651.651 0 0 0 .474-.392 2.9 2.9 0 0 0 .08-.891l-.34-11.985a2.374 2.374 0 0 0-.144-.9.659.659 0 0 0-.5-.36 4.175 4.175 0 0 0-1.219-.071l-.029-.7 6.393-.187a6.043 6.043 0 0 1 3.719.9 3.516 3.516 0 0 1 1.414 2.951 3.953 3.953 0 0 1-.834 2.728 4.661 4.661 0 0 1-2.41 1.468V8.83a3.222 3.222 0 0 1 1.832 1.149 6.132 6.132 0 0 1 .925 2.53l.177.9a5.8 5.8 0 0 0 .724 2.012 1.467 1.467 0 0 0 1.358.605l.028.7-3.092.084a4.363 4.363 0 0 1-1.017-2.237l-.662-2.994a3.025 3.025 0 0 0-.913-1.747 2.783 2.783 0 0 0-1.884-.5l-1.442.04.161 5.517a2.319 2.319 0 0 0 .145.887.689.689 0 0 0 .535.359 5.779 5.779 0 0 0 1.315.054l.013.705-5.96.164Zm5.294-7.928a3.787 3.787 0 0 0 2.645-.889 3.447 3.447 0 0 0 .772-2.6 3.47 3.47 0 0 0-.959-2.575 3.83 3.83 0 0 0-2.706-.766 2.1 2.1 0 0 0-1.166.235.858.858 0 0 0-.26.709l.168 5.932ZM218.816 16.075a5.706 5.706 0 0 0 1.282-.083.662.662 0 0 0 .474-.377 3.819 3.819 0 0 0 .11-1l.176-11.826a3.073 3.073 0 0 0-.1-.995.639.639 0 0 0-.455-.391 5.115 5.115 0 0 0-1.252-.116l0-.7L230.1.73l-.06 3.927-.609 0a7.164 7.164 0 0 0-.5-1.939 1.745 1.745 0 0 0-.96-.9A5.165 5.165 0 0 0 226 1.522L223.913 1.5a.987.987 0 0 0-.7.15 1.114 1.114 0 0 0-.164.723l-.078 5.568 2.71.03a3.786 3.786 0 0 0 1.327-.161 1.06 1.06 0 0 0 .6-.563 6.391 6.391 0 0 0 .314-1.278l.577.006-.071 5-.578-.006a6.677 6.677 0 0 0-.278-1.252 1.179 1.179 0 0 0-.572-.6 3.408 3.408 0 0 0-1.334-.207l-2.71-.03-.083 5.246a2.565 2.565 0 0 0 .2 1.239 1.169 1.169 0 0 0 .795.538 8.1 8.1 0 0 0 1.9.167 7.462 7.462 0 0 0 2.3-.239 2.35 2.35 0 0 0 1.281-.973 7.027 7.027 0 0 0 .8-2.13l.626 0-.327 4.223L218.83 16.8ZM237.126 21.709a1.855 1.855 0 0 1-.685-1.552 1.692 1.692 0 0 1 .429-1.127 1.321 1.321 0 0 1 1.052-.355 1.273 1.273 0 0 1 .855.369 1.1 1.1 0 0 1 .305.9 1.084 1.084 0 0 1-.1.462 1.465 1.465 0 0 1-.234.341.761.761 0 0 0-.171.34.417.417 0 0 0 .2.4.942.942 0 0 0 .532.159 1.607 1.607 0 0 0 1.682-.98 8.325 8.325 0 0 0 .619-3.092l.824-14.107a2.96 2.96 0 0 0-.049-1 .714.714 0 0 0-.456-.422 5.07 5.07 0 0 0-1.237-.178l.035-.706 5.84.3-.035.706a5.348 5.348 0 0 0-1.267.037.706.706 0 0 0-.49.361 3.239 3.239 0 0 0-.159.984l-.7 12.019a11.791 11.791 0 0 1-1.255 5.174 3.611 3.611 0 0 1-3.626 1.657A2.723 2.723 0 0 1 237.126 21.709ZM249.108 15.828a9.5 9.5 0 0 1-1.247-6.188 9.843 9.843 0 0 1 2.316-5.913 6.437 6.437 0 0 1 5.577-1.891A6.325 6.325 0 0 1 260.948 4.6a9.684 9.684 0 0 1 1.231 6.2 9.59 9.59 0 0 1-2.332 5.9 6.433 6.433 0 0 1-5.593 1.845A6.321 6.321 0 0 1 249.108 15.828Zm9.042.044a12.211 12.211 0 0 0 1.525-5.286 12.58 12.58 0 0 0-.531-5.573A3.668 3.668 0 0 0 255.7 2.65a3.764 3.764 0 0 0-3.816 1.768 12.415 12.415 0 0 0-1.508 5.408 12.245 12.245 0 0 0 .561 5.449 3.67 3.67 0 0 0 3.41 2.426A3.707 3.707 0 0 0 258.15 15.872ZM277.9 4.414l-.084.707a4.243 4.243 0 0 0-1.058-.013 1.246 1.246 0 0 0-.636.318 5.966 5.966 0 0 0-.691.84l-4.476 6.977-.563 4.411a2.483 2.483 0 0 0 0 .981.727.727 0 0 0 .5.452 7.084 7.084 0 0 0 1.48.281l-.084.707-6.441-.748.084-.707a7.255 7.255 0 0 0 1.492.066.732.732 0 0 0 .6-.332 2.562 2.562 0 0 0 .24-.955l.521-4.118-2.937-8.353a2.207 2.207 0 0 0-.611-1.047 2.472 2.472 0 0 0-1.194-.378l.084-.707 5.589.639-.083.707-1.157-.133c-.273-.026-.416.068-.443.3a.806.806 0 0 0 .071.4l2.438 7.349h.048l4.036-6.525a1.159 1.159 0 0 0 .169-.432c.028-.246-.1-.382-.376-.408l-1.2-.132.083-.707ZM283.74 21.778a4.526 4.526 0 0 1-.662-.341 2.372 2.372 0 0 0-.583-.266.568.568 0 0 0-.287.035.853.853 0 0 0-.237.234l-.338-.055.332-3.027.354.056a3.957 3.957 0 0 0 .694 2.073 2.279 2.279 0 0 0 1.522.894 1.869 1.869 0 0 0 1.311-.207 1.423 1.423 0 0 0 .655-1.023 1.282 1.282 0 0 0-.128-.887 2.127 2.127 0 0 0-.54-.635 9.442 9.442 0 0 0-1.006-.657l-.4-.239a4.934 4.934 0 0 1-1.416-1.2 1.847 1.847 0 0 1-.266-1.452 2.3 2.3 0 0 1 1.092-1.69 3.111 3.111 0 0 1 2.174-.345 3.9 3.9 0 0 1 .676.157 4.821 4.821 0 0 1 .566.251 2.969 2.969 0 0 0 .435.177.32.32 0 0 0 .255-.051.5.5 0 0 0 .127-.14.23.23 0 0 0 .046-.093l.321.056-.321 2.689-.354-.055c-.074-1.456-.664-2.258-1.758-2.438a1.968 1.968 0 0 0-1.247.174 1.238 1.238 0 0 0-.334 1.908 3.736 3.736 0 0 0 .975.8l.453.238a5.718 5.718 0 0 1 1.771 1.349 2.067 2.067 0 0 1 .351 1.681 2.524 2.524 0 0 1-1.155 1.784 3.193 3.193 0 0 1-2.254.391A1.536 1.536 0 0 1 283.74 21.778ZM289.724 22.074a2.575 2.575 0 0 0 .836.062.393.393 0 0 0 .349-.2 2.6 2.6 0 0 0 .181-.647l1.026-5.4a1.305 1.305 0 0 0 .021-.645c-.05-.106-.179-.18-.389-.223l-.594-.1.1-.538 2.2.008.5.083-1.333 7.077a2.33 2.33 0 0 0-.053.675.391.391 0 0 0 .262.3 4.746 4.746 0 0 0 .8.2l-.1.523-3.891-.668Zm3.083-9.729a.931.931 0 0 1-.141-.749 1.08 1.08 0 0 1 .4-.682.927.927 0 0 1 .751-.166.911.911 0 0 1 .648.418 1.043 1.043 0 0 1 .126.765 1.013 1.013 0 0 1-.405.651.987.987 0 0 1-.751.166A.875.875 0 0 1 292.807 12.345ZM303.564 24.273a.406.406 0 0 0 .263.317 3.419 3.419 0 0 0 .805.232l-.119.523-3.828-.747.119-.523a4.34 4.34 0 0 0 .8.093.42.42 0 0 0 .349-.19 1.815 1.815 0 0 0 .2-.616l.932-4.387a2.359 2.359 0 0 0-.091-1.47 1.421 1.421 0 0 0-1.12-.778 2 2 0 0 0-1.215.113 4.1 4.1 0 0 0-1.109.77l-1.065 5.033a2.4 2.4 0 0 0-.069.645.369.369 0 0 0 .246.3 4.557 4.557 0 0 0 .757.2l-.1.523-3.829-.746.12-.524a4.586 4.586 0 0 0 .835.093.433.433 0 0 0 .365-.19 2.262 2.262 0 0 0 .2-.632l1.138-5.372a1.317 1.317 0 0 0 .022-.644c-.051-.122-.164-.2-.374-.239l-.594-.112.118-.539 2.133.04.482.1-.281 1.339h.016a4.315 4.315 0 0 1 1.508-.823 3.454 3.454 0 0 1 1.635-.043c1.577.31 2.171 1.327 1.8 3.051l-.962 4.54A2.055 2.055 0 0 0 303.564 24.273ZM307.424 24.973a4.81 4.81 0 0 1-.2-3.386 5.289 5.289 0 0 1 1.757-3.02 3.685 3.685 0 0 1 3.228-.592 3.764 3.764 0 0 1 1.957.978 1.634 1.634 0 0 1 .477 1.617 1.174 1.174 0 0 1-.4.682.822.822 0 0 1-.719.119.835.835 0 0 1-.6-.388.912.912 0 0 1-.076-.689.679.679 0 0 1 .154-.34 1.871 1.871 0 0 1 .251-.28.522.522 0 0 0 .189-.264c.029-.154-.054-.321-.265-.471a2.232 2.232 0 0 0-.872-.368 2.339 2.339 0 0 0-2.044.434 4.964 4.964 0 0 0-1.347 2.722c-.612 2.541-.074 3.988 1.583 4.343A2.542 2.542 0 0 0 313.243 25l.36.347a3.424 3.424 0 0 1-1.294 1.187 3.31 3.31 0 0 1-2.354.179A3.369 3.369 0 0 1 307.424 24.973ZM323.444 25.356l-5.489-1.347a5.808 5.808 0 0 0-.128 2.762 2 2 0 0 0 1.66 1.428 2.342 2.342 0 0 0 1.728-.152 3.456 3.456 0 0 0 1.231-1.156l.422.33a4.179 4.179 0 0 1-1.593 1.469 3.5 3.5 0 0 1-2.434.1 3.367 3.367 0 0 1-2.452-1.782 5.06 5.06 0 0 1-.06-3.388 5.4 5.4 0 0 1 1.821-3.068 3.445 3.445 0 0 1 3.053-.5c2.286.559 3.037 2.263 2.271 5.113Zm-1.459-.972a6.125 6.125 0 0 0 .274-2.6 1.41 1.41 0 0 0-1.174-1.145 1.731 1.731 0 0 0-1.739.459 5.831 5.831 0 0 0-1.241 2.352ZM329.349 31.111a4.107 4.107 0 0 1 1.488-1.973 16.542 16.542 0 0 1 2.95-1.768c.684-.334 1.239-.619 1.652-.857a5.326 5.326 0 0 0 1.2-1 4.075 4.075 0 0 0 .886-1.594 2.605 2.605 0 0 0 .014-1.9 2.1 2.1 0 0 0-2.407-1.062.89.89 0 0 0-.615.562.863.863 0 0 0 .023.444 1.194 1.194 0 0 1 .012.583 1.037 1.037 0 0 1-.486.652.946.946 0 0 1-.769.06 1.023 1.023 0 0 1-.634-.5 1.183 1.183 0 0 1-.016-.936 2.034 2.034 0 0 1 1.514-1.406 4.787 4.787 0 0 1 2.534.064 3.656 3.656 0 0 1 2.271 1.571 3.16 3.16 0 0 1 .159 2.6 3.663 3.663 0 0 1-.824 1.471 4.011 4.011 0 0 1-1.234.88c-.461.207-1.115.464-1.943.739a16.725 16.725 0 0 0-2.847 1.26 2.9 2.9 0 0 0-1.246 1.172l4.012 1.142a3.128 3.128 0 0 0 1 .151.968.968 0 0 0 .59-.209 3.9 3.9 0 0 0 .486-.561l.5.145-1.416 2.4-6.879-1.966ZM340.78 33.015a8.754 8.754 0 0 1 .512-4.593 9.158 9.158 0 0 1 2.461-3.984 3.394 3.394 0 0 1 3.466-.75 3.238 3.238 0 0 1 2.321 2.582 8.6 8.6 0 0 1-.511 4.594 9.306 9.306 0 0 1-2.463 3.983 3.388 3.388 0 0 1-3.465.75A3.189 3.189 0 0 1 340.78 33.015Zm4.008 1.879a3.974 3.974 0 0 0 1.271-1.51 20.531 20.531 0 0 0 1.277-3.058 20.942 20.942 0 0 0 .89-3.174 3.716 3.716 0 0 0-.067-1.946 1.694 1.694 0 0 0-1.123-.993 1.748 1.748 0 0 0-1.52.149 4.028 4.028 0 0 0-1.272 1.524 21.445 21.445 0 0 0-1.277 3.059 20.718 20.718 0 0 0-.9 3.235 3.486 3.486 0 0 0 .082 1.9 1.67 1.67 0 0 0 1.139.947A1.719 1.719 0 0 0 344.788 34.894ZM350.92 36.291a8.908 8.908 0 0 1 .656-4.581 9.08 9.08 0 0 1 2.592-3.909 3.4 3.4 0 0 1 3.483-.658 3.181 3.181 0 0 1 2.227 2.645 8.754 8.754 0 0 1-.656 4.581 9.241 9.241 0 0 1-2.593 3.909 3.434 3.434 0 0 1-3.5.658A3.144 3.144 0 0 1 350.92 36.291Zm3.946 2a3.889 3.889 0 0 0 1.3-1.48 21.646 21.646 0 0 0 1.374-3.013 21.254 21.254 0 0 0 .987-3.146 3.816 3.816 0 0 0 0-1.947 1.651 1.651 0 0 0-1.092-1.024 1.755 1.755 0 0 0-1.521.1 3.919 3.919 0 0 0-1.321 1.48 21.9 21.9 0 0 0-1.373 3.013 22.924 22.924 0 0 0-1.018 3.207 3.617 3.617 0 0 0 .019 1.9 1.71 1.71 0 0 0 1.107.993A1.785 1.785 0 0 0 354.866 38.293ZM360.3 40.852a1.833 1.833 0 0 1-.291-1.912 1.352 1.352 0 0 1 .612-.716 1.09 1.09 0 0 1 .85-.03.88.88 0 0 1 .521.482 1.024 1.024 0 0 1-.035.752 1.013 1.013 0 0 1-.171.294 1.549 1.549 0 0 1-.236.2.779.779 0 0 0-.268.295.766.766 0 0 0 .159.8 2.254 2.254 0 0 0 .989.673 2.339 2.339 0 0 0 2.051-.066 3.642 3.642 0 0 0 1.49-1.866c.737-1.776.316-2.965-1.282-3.581l-.742-.248.293-.68a6.425 6.425 0 0 0 .71.31 1.868 1.868 0 0 0 1.714-.091 2.877 2.877 0 0 0 1.162-1.415 2.762 2.762 0 0 0 .193-1.752 1.594 1.594 0 0 0-1.062-1.132 2.073 2.073 0 0 0-1.076-.134.784.784 0 0 0-.666.441.984.984 0 0 0-.025.414 1.182 1.182 0 0 1-.069.63.915.915 0 0 1-.5.545.953.953 0 0 1-.738-.018 1.033 1.033 0 0 1-.6-.541 1.184 1.184 0 0 1 .065-.891 1.961 1.961 0 0 1 1.6-1.193 4.721 4.721 0 0 1 2.506.31 3.762 3.762 0 0 1 1.983 1.53 2.49 2.49 0 0 1 .041 2.33 2.782 2.782 0 0 1-1.225 1.477 2.885 2.885 0 0 1-1.967.234l-.015.046a2.846 2.846 0 0 1 1.1.87 2.629 2.629 0 0 1 .554 1.417 3.65 3.65 0 0 1-.305 1.784 3.5 3.5 0 0 1-2.063 2.075 4.552 4.552 0 0 1-3.177-.175A4.7 4.7 0 0 1 360.3 40.852Z" class="homepage-eat-b"/>
                        </g>
                        <path d="M263.318,64.419c-1.289-.629-1.256-.973-2.657-1.065-1.3-.084-2.688-.57-4.071-.646a3.252,3.252,0,0,1-.056-1.215c.681-1.808,1.373-3.616,2.177-5.371.934-2.037-.417-5.282-2.926-5.275a4.261,4.261,0,0,1-1.322-.443c-.678-.246-.7-.6-.448-1.284a35.113,35.113,0,0,0,1.072-4.044c.254-1.095.44-2.206.645-3.312a2.316,2.316,0,0,0,.119-1.089,6.712,6.712,0,0,0-1.125-2.222,3.978,3.978,0,0,0-2.223-1.444c-4.018-.208-8.046-.224-12.071-.262-4.794-.046-9.589-.084-14.382-.05-2.223.015-4.443.225-6.666.318q-6.348.267-12.7.5a56.79,56.79,0,0,1-7.192.2c-5.742-.52-11.37.335-17.024,1a2.642,2.642,0,0,0-.728.233c-1.959.855-3.869,1.85-5.885,2.535-1.551.526-1.874,1.693-.539,2.879,1.56,1.387,1.707,3.371,2.327,5.143.272.776-.139,1.121-1,.71a2.38,2.38,0,0,0-1.542.356,8.177,8.177,0,0,0-2.04,2.272c-.938,1.712-.525,3.719-.785,5.577a6.393,6.393,0,0,0,.891,4.433,29.079,29.079,0,0,0-4.068.858,11.578,11.578,0,0,0-3.809,2.018c-.781.7-.571,1.979-1,3.038a3.737,3.737,0,0,0,0,1.4c.331,1.038.453,1.518.7,2.575.232.987.189,2.043.453,3.019a89.914,89.914,0,0,0,2.934,9.9c1.264,3.185,1.83,6.637,3.87,9.526a11.906,11.906,0,0,1,1.119,2.689,31.309,31.309,0,0,0,1.3,3.475c.669,1.28,1.795,2.352,2.31,3.675a21.281,21.281,0,0,0,3.29,5.6c1.58,1.983,2.928,4.127,5.221,5.459a20.886,20.886,0,0,1,2.426,1.756c.464.385.692.261,1.306.3,1,.067,1.879.4,2.876.49,2.065.186,4.112.566,6.176.769,2.416.239,4.84.479,7.264.528,3.163.063,6.33-.05,9.5-.112.844-.017,1.685-.16,2.529-.185,1.617-.046,3.255.1,4.85-.1,3-.384,5.973-.957,8.957-1.456,1.088-.182,2.171-.4,3.262-.559.963-.14,1.932-.256,2.9-.31.915-.051,2.926-.455,3.795-.561a5.155,5.155,0,0,0,2.612-1.016c1.42-.76,2.072-2.21,3.051-3.485,1.4-1.822,2.979-3.51,4.309-5.378,1.292-1.813,2.331-3.8,3.548-5.673.914-1.4,1.612-2.927,2.426-4.351,1.347-2.354,1.848-4.908,2.641-7.388.849-2.653,1.438-5.39,2.116-8.1.575-2.292,1.107-4.594,1.672-6.888.594-2.414.428-5,1.718-7.265a1.285,1.285,0,0,0-.077-1.143A5.2,5.2,0,0,0,263.318,64.419ZM256.6,54.4c-1.379,1.689-3.362,1.347-5.08,1.846-.239-1.483.414-3.221,1.279-3.549C253.821,52.311,255.549,53.065,256.6,54.4Zm-7.955,2.545c-2.786.255-5.5.556-8.228.742-4.612.314-9.247.38-13.836.879a96.743,96.743,0,0,1-13.209.075c-2.389-.066-4.8.163-7.169-.035-3.23-.27-6.427-.905-9.654-1.215a26.193,26.193,0,0,0-4.861.134c-2,.183-3.965.662-5.936-.253a6.833,6.833,0,0,0-2.077-.241c-1.426-3.84-4.064-7.179-4.99-11.46a7.047,7.047,0,0,1,1.605.016c3.376.954,6.781.562,10.193.321a19.718,19.718,0,0,1,2.9.185c.552.043,1.077-.35,1.612-.31,4.644.349,8.386.017,12.573.085,4.535.074,9.073-.029,13.61-.036,3.643-.005,7.287.039,10.93.018.937-.005,1.873-.227,2.812-.256,1.607-.05,3.228.088,4.823-.062,2.21-.208,4.4-.6,6.6-.934.421-.063.832-.194,1.251-.276,1.62-.319,3.242-.63,5.08-.986.335,1.914.672,3.777-.687,5.727a46.214,46.214,0,0,0-3.317,6.31A4.371,4.371,0,0,0,248.642,56.948Zm-69.83-14.967c3.422-1.23,6.848-2.312,10.584-2.2,1.9.057,3.812-.564,5.725-.609,2.085-.048,4.183.379,6.267.311,4.529-.148,9.05-.614,13.579-.7,6.851-.134,13.7-.049,20.558-.077,2.356-.01,4.712-.1,7.069-.115,2.227-.013,4.461-.073,6.679.075,1.45.1,3.119-.1,4.292,1.759a12.565,12.565,0,0,1-2.919,1.518c-3.542.758-7.044,1.773-10.749,1.6-1.557-.075-3.132.378-4.706.46-2.868.15-5.743.3-8.613.274-6.255-.067-12.508-.3-18.764-.363-3.3-.032-6.6.251-9.9.214-2.023-.024-4.042-.391-6.064-.588a8.893,8.893,0,0,0-1.275-.01c-.165.007-.341.175-.487.146-2.558-.523-5.061,1.489-7.662.147-.364-.188-.978.179-1.465.141a8.1,8.1,0,0,1-2.528-.42C177.754,43.248,178.011,42.269,178.812,41.981Zm-3.2,10.945c1.538-.921,2.78-1.056,3.633-.175a2.636,2.636,0,0,1,.691,1.131c.272,1.132.439,2.29.68,3.618-1.569-.171-3.068-.3-4.558-.506-1.177-.16-1.2-1.156-1.338-2.035A1.789,1.789,0,0,1,175.614,52.926Zm1.069,5.723a27.925,27.925,0,0,0,3.073.571c4.3.042,8.6-.147,12.894-.017a78.981,78.981,0,0,1,11.136.928,42.422,42.422,0,0,0,5.805.258c2.541.1,5.076.355,7.615.523a12.276,12.276,0,0,0,1.8-.013c3.948-.324,7.89-.741,11.843-.976,3.031-.18,6.085,0,9.109-.233,3.183-.245,6.345-.768,9.51-1.216,1.991-.282,3.971-.65,6.257-1.029-.283,2.1-.163,3.905-1.822,5.092a1,1,0,0,0-.3.412c-.738,1.74-1.578,3.449-2.155,5.242a1.739,1.739,0,0,1-1.793,1.45c-1.454.019-2.909-.017-4.364-.047-4.831-.1-9.662-.317-14.493-.287-3.925.024-7.847.388-11.774.5-2.642.079-5.29-.025-7.935-.017-.983,0-1.966.155-2.946.129-3.764-.1-7.526-.308-11.29-.343-2.308-.022-4.619.2-6.929.306a6.023,6.023,0,0,1-1.788.006c-1.881-.512-3.666.019-5.431.462a1.478,1.478,0,0,1-1.948-.839c-.777-1.291-1.738-2.472-2.6-3.713-.848-1.217-1.663-2.457-2.511-3.674-.306-.441-.824-.8-.964-1.276a10.788,10.788,0,0,1-.2-2.193A16.061,16.061,0,0,1,176.683,58.649Zm-8.417,7.463c1.151-.287,2.263-.729,3.411-1.03,2.354-.616,3.33-.188,4.733,1.92.741,1.111,1.524,2.194,2.37,3.409-3.552.549-7.006,1.379-10.356-.164a2.712,2.712,0,0,1-1.458-1.952C167,67.6,167.07,66.41,168.266,66.112Zm92.19,12.943c-.282,1.06-.441,2.154-.752,3.2-.419,1.417-.927,2.808-1.405,4.208a12.153,12.153,0,0,0-.886,2.615,23,23,0,0,1-3.938,10.112,78.417,78.417,0,0,1-6.234,8.646c-1.133,1.349-1.671,2.993-2.8,4.27a5.222,5.222,0,0,1-1.925,1.378,24.619,24.619,0,0,1-4.614,1.459c-3.393.6-6.825.983-10.231,1.513-1.689.263-3.356.661-5.034.992a6.212,6.212,0,0,1-1.133.179c-3.791.043-7.583.059-11.374.1-1.908.023-3.815.14-5.722.119-1.357-.016-2.713-.2-4.07-.292-.638-.043-1.29.019-1.918-.055-3.431-.4-6.22-.264-8.945-1.852a21.657,21.657,0,0,1-2.2-1.266c-1.608-1.22-3.078-2.622-4.628-3.922-1.926-1.615-2.325-4.114-3.595-6.106-.823-1.29-1.723-2.533-2.5-3.848a24.217,24.217,0,0,1-1.312-2.76q-1.008-2.319-1.958-4.664c-.669-1.655-1.323-3.316-1.948-4.988q-.783-2.1-1.481-4.222c-.383-1.16-.763-2.325-1.05-3.51-.608-2.512-1.982-4.86-1.652-7.577.02-.163.053-.325.122-.735a23.524,23.524,0,0,0,3.845.809,49.124,49.124,0,0,0,4.987-.264c.64-.037,1.285-.019,1.923-.08,1.265-.12,2.529-.267,3.79-.423.679-.083,1.351-.281,2.029-.3,5.176-.141,10.353-.3,15.531-.35,2.345-.023,4.7.312,7.039.262,6.2-.133,12.4-.451,18.6-.571,3.791-.073,7.586.092,11.379.135,1.287.014,2.575-.064,3.86-.019,1.614.056,3.225.268,4.838.277,1.656.01,3.314-.143,4.97-.225,1.233-.061,2.477-.037,3.695-.2,2.613-.355,5.212-.81,7.819-1.214.107-.016.231.076.411.14C262.113,73.149,261.244,76.094,260.456,79.055Zm-6.772-9.8c.593-1.549,1.037-2.908,1.656-4.181.144-.294.926-.482,1.351-.4,1.749.345,3.479.793,5.2,1.255.323.086.582.41.988.712C260.052,68.787,256.845,68.689,253.684,69.254Z" style="fill:#76d699"/>
                    </svg>